%TF.GenerationSoftware,KiCad,Pcbnew,9.0.3*%
%TF.CreationDate,2025-07-31T01:26:59+05:30*%
%TF.ProjectId,led toggle,6c656420-746f-4676-976c-652e6b696361,rev?*%
%TF.SameCoordinates,Original*%
%TF.FileFunction,Copper,L2,Bot*%
%TF.FilePolarity,Positive*%
%FSLAX46Y46*%
G04 Gerber Fmt 4.6, Leading zero omitted, Abs format (unit mm)*
G04 Created by KiCad (PCBNEW 9.0.3) date 2025-07-31 01:26:59*
%MOMM*%
%LPD*%
G01*
G04 APERTURE LIST*
G04 Aperture macros list*
%AMRoundRect*
0 Rectangle with rounded corners*
0 $1 Rounding radius*
0 $2 $3 $4 $5 $6 $7 $8 $9 X,Y pos of 4 corners*
0 Add a 4 corners polygon primitive as box body*
4,1,4,$2,$3,$4,$5,$6,$7,$8,$9,$2,$3,0*
0 Add four circle primitives for the rounded corners*
1,1,$1+$1,$2,$3*
1,1,$1+$1,$4,$5*
1,1,$1+$1,$6,$7*
1,1,$1+$1,$8,$9*
0 Add four rect primitives between the rounded corners*
20,1,$1+$1,$2,$3,$4,$5,0*
20,1,$1+$1,$4,$5,$6,$7,0*
20,1,$1+$1,$6,$7,$8,$9,0*
20,1,$1+$1,$8,$9,$2,$3,0*%
G04 Aperture macros list end*
%ADD10C,0.100000*%
%ADD11C,0.150000*%
%ADD12C,0.300000*%
%ADD13C,0.400000*%
%TA.AperFunction,ComponentPad*%
%ADD14C,1.600000*%
%TD*%
%TA.AperFunction,ComponentPad*%
%ADD15RoundRect,0.250000X-0.550000X-0.550000X0.550000X-0.550000X0.550000X0.550000X-0.550000X0.550000X0*%
%TD*%
%TA.AperFunction,ComponentPad*%
%ADD16C,2.000000*%
%TD*%
%TA.AperFunction,ComponentPad*%
%ADD17R,1.800000X1.800000*%
%TD*%
%TA.AperFunction,ComponentPad*%
%ADD18C,1.800000*%
%TD*%
%TA.AperFunction,Conductor*%
%ADD19C,0.200000*%
%TD*%
G04 APERTURE END LIST*
D10*
D11*
X177002200Y-166007200D02*
X285002200Y-166007200D01*
X285002200Y-198007200D01*
X177002200Y-198007200D01*
X177002200Y-166007200D01*
D10*
D11*
X10000000Y-10000000D02*
X287002200Y-10000000D01*
X287002200Y-200007200D01*
X10000000Y-200007200D01*
X10000000Y-10000000D01*
D10*
D11*
X12000000Y-12000000D02*
X285002200Y-12000000D01*
X285002200Y-198007200D01*
X12000000Y-198007200D01*
X12000000Y-12000000D01*
D10*
D11*
X60000000Y-12000000D02*
X60000000Y-10000000D01*
D10*
D11*
X110000000Y-12000000D02*
X110000000Y-10000000D01*
D10*
D11*
X160000000Y-12000000D02*
X160000000Y-10000000D01*
D10*
D11*
X210000000Y-12000000D02*
X210000000Y-10000000D01*
D10*
D11*
X260000000Y-12000000D02*
X260000000Y-10000000D01*
D10*
D11*
X36089160Y-11593604D02*
X35346303Y-11593604D01*
X35717731Y-11593604D02*
X35717731Y-10293604D01*
X35717731Y-10293604D02*
X35593922Y-10479319D01*
X35593922Y-10479319D02*
X35470112Y-10603128D01*
X35470112Y-10603128D02*
X35346303Y-10665033D01*
D10*
D11*
X85346303Y-10417414D02*
X85408207Y-10355509D01*
X85408207Y-10355509D02*
X85532017Y-10293604D01*
X85532017Y-10293604D02*
X85841541Y-10293604D01*
X85841541Y-10293604D02*
X85965350Y-10355509D01*
X85965350Y-10355509D02*
X86027255Y-10417414D01*
X86027255Y-10417414D02*
X86089160Y-10541223D01*
X86089160Y-10541223D02*
X86089160Y-10665033D01*
X86089160Y-10665033D02*
X86027255Y-10850747D01*
X86027255Y-10850747D02*
X85284398Y-11593604D01*
X85284398Y-11593604D02*
X86089160Y-11593604D01*
D10*
D11*
X135284398Y-10293604D02*
X136089160Y-10293604D01*
X136089160Y-10293604D02*
X135655826Y-10788842D01*
X135655826Y-10788842D02*
X135841541Y-10788842D01*
X135841541Y-10788842D02*
X135965350Y-10850747D01*
X135965350Y-10850747D02*
X136027255Y-10912652D01*
X136027255Y-10912652D02*
X136089160Y-11036461D01*
X136089160Y-11036461D02*
X136089160Y-11345985D01*
X136089160Y-11345985D02*
X136027255Y-11469795D01*
X136027255Y-11469795D02*
X135965350Y-11531700D01*
X135965350Y-11531700D02*
X135841541Y-11593604D01*
X135841541Y-11593604D02*
X135470112Y-11593604D01*
X135470112Y-11593604D02*
X135346303Y-11531700D01*
X135346303Y-11531700D02*
X135284398Y-11469795D01*
D10*
D11*
X185965350Y-10726938D02*
X185965350Y-11593604D01*
X185655826Y-10231700D02*
X185346303Y-11160271D01*
X185346303Y-11160271D02*
X186151064Y-11160271D01*
D10*
D11*
X236027255Y-10293604D02*
X235408207Y-10293604D01*
X235408207Y-10293604D02*
X235346303Y-10912652D01*
X235346303Y-10912652D02*
X235408207Y-10850747D01*
X235408207Y-10850747D02*
X235532017Y-10788842D01*
X235532017Y-10788842D02*
X235841541Y-10788842D01*
X235841541Y-10788842D02*
X235965350Y-10850747D01*
X235965350Y-10850747D02*
X236027255Y-10912652D01*
X236027255Y-10912652D02*
X236089160Y-11036461D01*
X236089160Y-11036461D02*
X236089160Y-11345985D01*
X236089160Y-11345985D02*
X236027255Y-11469795D01*
X236027255Y-11469795D02*
X235965350Y-11531700D01*
X235965350Y-11531700D02*
X235841541Y-11593604D01*
X235841541Y-11593604D02*
X235532017Y-11593604D01*
X235532017Y-11593604D02*
X235408207Y-11531700D01*
X235408207Y-11531700D02*
X235346303Y-11469795D01*
D10*
D11*
X285965350Y-10293604D02*
X285717731Y-10293604D01*
X285717731Y-10293604D02*
X285593922Y-10355509D01*
X285593922Y-10355509D02*
X285532017Y-10417414D01*
X285532017Y-10417414D02*
X285408207Y-10603128D01*
X285408207Y-10603128D02*
X285346303Y-10850747D01*
X285346303Y-10850747D02*
X285346303Y-11345985D01*
X285346303Y-11345985D02*
X285408207Y-11469795D01*
X285408207Y-11469795D02*
X285470112Y-11531700D01*
X285470112Y-11531700D02*
X285593922Y-11593604D01*
X285593922Y-11593604D02*
X285841541Y-11593604D01*
X285841541Y-11593604D02*
X285965350Y-11531700D01*
X285965350Y-11531700D02*
X286027255Y-11469795D01*
X286027255Y-11469795D02*
X286089160Y-11345985D01*
X286089160Y-11345985D02*
X286089160Y-11036461D01*
X286089160Y-11036461D02*
X286027255Y-10912652D01*
X286027255Y-10912652D02*
X285965350Y-10850747D01*
X285965350Y-10850747D02*
X285841541Y-10788842D01*
X285841541Y-10788842D02*
X285593922Y-10788842D01*
X285593922Y-10788842D02*
X285470112Y-10850747D01*
X285470112Y-10850747D02*
X285408207Y-10912652D01*
X285408207Y-10912652D02*
X285346303Y-11036461D01*
D10*
D11*
X60000000Y-198007200D02*
X60000000Y-200007200D01*
D10*
D11*
X110000000Y-198007200D02*
X110000000Y-200007200D01*
D10*
D11*
X160000000Y-198007200D02*
X160000000Y-200007200D01*
D10*
D11*
X210000000Y-198007200D02*
X210000000Y-200007200D01*
D10*
D11*
X260000000Y-198007200D02*
X260000000Y-200007200D01*
D10*
D11*
X36089160Y-199600804D02*
X35346303Y-199600804D01*
X35717731Y-199600804D02*
X35717731Y-198300804D01*
X35717731Y-198300804D02*
X35593922Y-198486519D01*
X35593922Y-198486519D02*
X35470112Y-198610328D01*
X35470112Y-198610328D02*
X35346303Y-198672233D01*
D10*
D11*
X85346303Y-198424614D02*
X85408207Y-198362709D01*
X85408207Y-198362709D02*
X85532017Y-198300804D01*
X85532017Y-198300804D02*
X85841541Y-198300804D01*
X85841541Y-198300804D02*
X85965350Y-198362709D01*
X85965350Y-198362709D02*
X86027255Y-198424614D01*
X86027255Y-198424614D02*
X86089160Y-198548423D01*
X86089160Y-198548423D02*
X86089160Y-198672233D01*
X86089160Y-198672233D02*
X86027255Y-198857947D01*
X86027255Y-198857947D02*
X85284398Y-199600804D01*
X85284398Y-199600804D02*
X86089160Y-199600804D01*
D10*
D11*
X135284398Y-198300804D02*
X136089160Y-198300804D01*
X136089160Y-198300804D02*
X135655826Y-198796042D01*
X135655826Y-198796042D02*
X135841541Y-198796042D01*
X135841541Y-198796042D02*
X135965350Y-198857947D01*
X135965350Y-198857947D02*
X136027255Y-198919852D01*
X136027255Y-198919852D02*
X136089160Y-199043661D01*
X136089160Y-199043661D02*
X136089160Y-199353185D01*
X136089160Y-199353185D02*
X136027255Y-199476995D01*
X136027255Y-199476995D02*
X135965350Y-199538900D01*
X135965350Y-199538900D02*
X135841541Y-199600804D01*
X135841541Y-199600804D02*
X135470112Y-199600804D01*
X135470112Y-199600804D02*
X135346303Y-199538900D01*
X135346303Y-199538900D02*
X135284398Y-199476995D01*
D10*
D11*
X185965350Y-198734138D02*
X185965350Y-199600804D01*
X185655826Y-198238900D02*
X185346303Y-199167471D01*
X185346303Y-199167471D02*
X186151064Y-199167471D01*
D10*
D11*
X236027255Y-198300804D02*
X235408207Y-198300804D01*
X235408207Y-198300804D02*
X235346303Y-198919852D01*
X235346303Y-198919852D02*
X235408207Y-198857947D01*
X235408207Y-198857947D02*
X235532017Y-198796042D01*
X235532017Y-198796042D02*
X235841541Y-198796042D01*
X235841541Y-198796042D02*
X235965350Y-198857947D01*
X235965350Y-198857947D02*
X236027255Y-198919852D01*
X236027255Y-198919852D02*
X236089160Y-199043661D01*
X236089160Y-199043661D02*
X236089160Y-199353185D01*
X236089160Y-199353185D02*
X236027255Y-199476995D01*
X236027255Y-199476995D02*
X235965350Y-199538900D01*
X235965350Y-199538900D02*
X235841541Y-199600804D01*
X235841541Y-199600804D02*
X235532017Y-199600804D01*
X235532017Y-199600804D02*
X235408207Y-199538900D01*
X235408207Y-199538900D02*
X235346303Y-199476995D01*
D10*
D11*
X285965350Y-198300804D02*
X285717731Y-198300804D01*
X285717731Y-198300804D02*
X285593922Y-198362709D01*
X285593922Y-198362709D02*
X285532017Y-198424614D01*
X285532017Y-198424614D02*
X285408207Y-198610328D01*
X285408207Y-198610328D02*
X285346303Y-198857947D01*
X285346303Y-198857947D02*
X285346303Y-199353185D01*
X285346303Y-199353185D02*
X285408207Y-199476995D01*
X285408207Y-199476995D02*
X285470112Y-199538900D01*
X285470112Y-199538900D02*
X285593922Y-199600804D01*
X285593922Y-199600804D02*
X285841541Y-199600804D01*
X285841541Y-199600804D02*
X285965350Y-199538900D01*
X285965350Y-199538900D02*
X286027255Y-199476995D01*
X286027255Y-199476995D02*
X286089160Y-199353185D01*
X286089160Y-199353185D02*
X286089160Y-199043661D01*
X286089160Y-199043661D02*
X286027255Y-198919852D01*
X286027255Y-198919852D02*
X285965350Y-198857947D01*
X285965350Y-198857947D02*
X285841541Y-198796042D01*
X285841541Y-198796042D02*
X285593922Y-198796042D01*
X285593922Y-198796042D02*
X285470112Y-198857947D01*
X285470112Y-198857947D02*
X285408207Y-198919852D01*
X285408207Y-198919852D02*
X285346303Y-199043661D01*
D10*
D11*
X10000000Y-60000000D02*
X12000000Y-60000000D01*
D10*
D11*
X10000000Y-110000000D02*
X12000000Y-110000000D01*
D10*
D11*
X10000000Y-160000000D02*
X12000000Y-160000000D01*
D10*
D11*
X10690476Y-35222176D02*
X11309523Y-35222176D01*
X10566666Y-35593604D02*
X10999999Y-34293604D01*
X10999999Y-34293604D02*
X11433333Y-35593604D01*
D10*
D11*
X11092857Y-84912652D02*
X11278571Y-84974557D01*
X11278571Y-84974557D02*
X11340476Y-85036461D01*
X11340476Y-85036461D02*
X11402380Y-85160271D01*
X11402380Y-85160271D02*
X11402380Y-85345985D01*
X11402380Y-85345985D02*
X11340476Y-85469795D01*
X11340476Y-85469795D02*
X11278571Y-85531700D01*
X11278571Y-85531700D02*
X11154761Y-85593604D01*
X11154761Y-85593604D02*
X10659523Y-85593604D01*
X10659523Y-85593604D02*
X10659523Y-84293604D01*
X10659523Y-84293604D02*
X11092857Y-84293604D01*
X11092857Y-84293604D02*
X11216666Y-84355509D01*
X11216666Y-84355509D02*
X11278571Y-84417414D01*
X11278571Y-84417414D02*
X11340476Y-84541223D01*
X11340476Y-84541223D02*
X11340476Y-84665033D01*
X11340476Y-84665033D02*
X11278571Y-84788842D01*
X11278571Y-84788842D02*
X11216666Y-84850747D01*
X11216666Y-84850747D02*
X11092857Y-84912652D01*
X11092857Y-84912652D02*
X10659523Y-84912652D01*
D10*
D11*
X11402380Y-135469795D02*
X11340476Y-135531700D01*
X11340476Y-135531700D02*
X11154761Y-135593604D01*
X11154761Y-135593604D02*
X11030952Y-135593604D01*
X11030952Y-135593604D02*
X10845238Y-135531700D01*
X10845238Y-135531700D02*
X10721428Y-135407890D01*
X10721428Y-135407890D02*
X10659523Y-135284080D01*
X10659523Y-135284080D02*
X10597619Y-135036461D01*
X10597619Y-135036461D02*
X10597619Y-134850747D01*
X10597619Y-134850747D02*
X10659523Y-134603128D01*
X10659523Y-134603128D02*
X10721428Y-134479319D01*
X10721428Y-134479319D02*
X10845238Y-134355509D01*
X10845238Y-134355509D02*
X11030952Y-134293604D01*
X11030952Y-134293604D02*
X11154761Y-134293604D01*
X11154761Y-134293604D02*
X11340476Y-134355509D01*
X11340476Y-134355509D02*
X11402380Y-134417414D01*
D10*
D11*
X10659523Y-185593604D02*
X10659523Y-184293604D01*
X10659523Y-184293604D02*
X10969047Y-184293604D01*
X10969047Y-184293604D02*
X11154761Y-184355509D01*
X11154761Y-184355509D02*
X11278571Y-184479319D01*
X11278571Y-184479319D02*
X11340476Y-184603128D01*
X11340476Y-184603128D02*
X11402380Y-184850747D01*
X11402380Y-184850747D02*
X11402380Y-185036461D01*
X11402380Y-185036461D02*
X11340476Y-185284080D01*
X11340476Y-185284080D02*
X11278571Y-185407890D01*
X11278571Y-185407890D02*
X11154761Y-185531700D01*
X11154761Y-185531700D02*
X10969047Y-185593604D01*
X10969047Y-185593604D02*
X10659523Y-185593604D01*
D10*
D11*
X287002200Y-60000000D02*
X285002200Y-60000000D01*
D10*
D11*
X287002200Y-110000000D02*
X285002200Y-110000000D01*
D10*
D11*
X287002200Y-160000000D02*
X285002200Y-160000000D01*
D10*
D11*
X285692676Y-35222176D02*
X286311723Y-35222176D01*
X285568866Y-35593604D02*
X286002199Y-34293604D01*
X286002199Y-34293604D02*
X286435533Y-35593604D01*
D10*
D11*
X286095057Y-84912652D02*
X286280771Y-84974557D01*
X286280771Y-84974557D02*
X286342676Y-85036461D01*
X286342676Y-85036461D02*
X286404580Y-85160271D01*
X286404580Y-85160271D02*
X286404580Y-85345985D01*
X286404580Y-85345985D02*
X286342676Y-85469795D01*
X286342676Y-85469795D02*
X286280771Y-85531700D01*
X286280771Y-85531700D02*
X286156961Y-85593604D01*
X286156961Y-85593604D02*
X285661723Y-85593604D01*
X285661723Y-85593604D02*
X285661723Y-84293604D01*
X285661723Y-84293604D02*
X286095057Y-84293604D01*
X286095057Y-84293604D02*
X286218866Y-84355509D01*
X286218866Y-84355509D02*
X286280771Y-84417414D01*
X286280771Y-84417414D02*
X286342676Y-84541223D01*
X286342676Y-84541223D02*
X286342676Y-84665033D01*
X286342676Y-84665033D02*
X286280771Y-84788842D01*
X286280771Y-84788842D02*
X286218866Y-84850747D01*
X286218866Y-84850747D02*
X286095057Y-84912652D01*
X286095057Y-84912652D02*
X285661723Y-84912652D01*
D10*
D11*
X286404580Y-135469795D02*
X286342676Y-135531700D01*
X286342676Y-135531700D02*
X286156961Y-135593604D01*
X286156961Y-135593604D02*
X286033152Y-135593604D01*
X286033152Y-135593604D02*
X285847438Y-135531700D01*
X285847438Y-135531700D02*
X285723628Y-135407890D01*
X285723628Y-135407890D02*
X285661723Y-135284080D01*
X285661723Y-135284080D02*
X285599819Y-135036461D01*
X285599819Y-135036461D02*
X285599819Y-134850747D01*
X285599819Y-134850747D02*
X285661723Y-134603128D01*
X285661723Y-134603128D02*
X285723628Y-134479319D01*
X285723628Y-134479319D02*
X285847438Y-134355509D01*
X285847438Y-134355509D02*
X286033152Y-134293604D01*
X286033152Y-134293604D02*
X286156961Y-134293604D01*
X286156961Y-134293604D02*
X286342676Y-134355509D01*
X286342676Y-134355509D02*
X286404580Y-134417414D01*
D10*
D11*
X285661723Y-185593604D02*
X285661723Y-184293604D01*
X285661723Y-184293604D02*
X285971247Y-184293604D01*
X285971247Y-184293604D02*
X286156961Y-184355509D01*
X286156961Y-184355509D02*
X286280771Y-184479319D01*
X286280771Y-184479319D02*
X286342676Y-184603128D01*
X286342676Y-184603128D02*
X286404580Y-184850747D01*
X286404580Y-184850747D02*
X286404580Y-185036461D01*
X286404580Y-185036461D02*
X286342676Y-185284080D01*
X286342676Y-185284080D02*
X286280771Y-185407890D01*
X286280771Y-185407890D02*
X286156961Y-185531700D01*
X286156961Y-185531700D02*
X285971247Y-185593604D01*
X285971247Y-185593604D02*
X285661723Y-185593604D01*
D10*
D11*
X200458026Y-193793328D02*
X200458026Y-192293328D01*
X200458026Y-192293328D02*
X200815169Y-192293328D01*
X200815169Y-192293328D02*
X201029455Y-192364757D01*
X201029455Y-192364757D02*
X201172312Y-192507614D01*
X201172312Y-192507614D02*
X201243741Y-192650471D01*
X201243741Y-192650471D02*
X201315169Y-192936185D01*
X201315169Y-192936185D02*
X201315169Y-193150471D01*
X201315169Y-193150471D02*
X201243741Y-193436185D01*
X201243741Y-193436185D02*
X201172312Y-193579042D01*
X201172312Y-193579042D02*
X201029455Y-193721900D01*
X201029455Y-193721900D02*
X200815169Y-193793328D01*
X200815169Y-193793328D02*
X200458026Y-193793328D01*
X202600884Y-193793328D02*
X202600884Y-193007614D01*
X202600884Y-193007614D02*
X202529455Y-192864757D01*
X202529455Y-192864757D02*
X202386598Y-192793328D01*
X202386598Y-192793328D02*
X202100884Y-192793328D01*
X202100884Y-192793328D02*
X201958026Y-192864757D01*
X202600884Y-193721900D02*
X202458026Y-193793328D01*
X202458026Y-193793328D02*
X202100884Y-193793328D01*
X202100884Y-193793328D02*
X201958026Y-193721900D01*
X201958026Y-193721900D02*
X201886598Y-193579042D01*
X201886598Y-193579042D02*
X201886598Y-193436185D01*
X201886598Y-193436185D02*
X201958026Y-193293328D01*
X201958026Y-193293328D02*
X202100884Y-193221900D01*
X202100884Y-193221900D02*
X202458026Y-193221900D01*
X202458026Y-193221900D02*
X202600884Y-193150471D01*
X203100884Y-192793328D02*
X203672312Y-192793328D01*
X203315169Y-192293328D02*
X203315169Y-193579042D01*
X203315169Y-193579042D02*
X203386598Y-193721900D01*
X203386598Y-193721900D02*
X203529455Y-193793328D01*
X203529455Y-193793328D02*
X203672312Y-193793328D01*
X204743741Y-193721900D02*
X204600884Y-193793328D01*
X204600884Y-193793328D02*
X204315170Y-193793328D01*
X204315170Y-193793328D02*
X204172312Y-193721900D01*
X204172312Y-193721900D02*
X204100884Y-193579042D01*
X204100884Y-193579042D02*
X204100884Y-193007614D01*
X204100884Y-193007614D02*
X204172312Y-192864757D01*
X204172312Y-192864757D02*
X204315170Y-192793328D01*
X204315170Y-192793328D02*
X204600884Y-192793328D01*
X204600884Y-192793328D02*
X204743741Y-192864757D01*
X204743741Y-192864757D02*
X204815170Y-193007614D01*
X204815170Y-193007614D02*
X204815170Y-193150471D01*
X204815170Y-193150471D02*
X204100884Y-193293328D01*
X205458026Y-193650471D02*
X205529455Y-193721900D01*
X205529455Y-193721900D02*
X205458026Y-193793328D01*
X205458026Y-193793328D02*
X205386598Y-193721900D01*
X205386598Y-193721900D02*
X205458026Y-193650471D01*
X205458026Y-193650471D02*
X205458026Y-193793328D01*
X205458026Y-192864757D02*
X205529455Y-192936185D01*
X205529455Y-192936185D02*
X205458026Y-193007614D01*
X205458026Y-193007614D02*
X205386598Y-192936185D01*
X205386598Y-192936185D02*
X205458026Y-192864757D01*
X205458026Y-192864757D02*
X205458026Y-193007614D01*
D10*
D11*
X177002200Y-194507200D02*
X285002200Y-194507200D01*
D10*
D11*
X178458026Y-196593328D02*
X178458026Y-195093328D01*
X179315169Y-196593328D02*
X178672312Y-195736185D01*
X179315169Y-195093328D02*
X178458026Y-195950471D01*
X179958026Y-196593328D02*
X179958026Y-195593328D01*
X179958026Y-195093328D02*
X179886598Y-195164757D01*
X179886598Y-195164757D02*
X179958026Y-195236185D01*
X179958026Y-195236185D02*
X180029455Y-195164757D01*
X180029455Y-195164757D02*
X179958026Y-195093328D01*
X179958026Y-195093328D02*
X179958026Y-195236185D01*
X181529455Y-196450471D02*
X181458027Y-196521900D01*
X181458027Y-196521900D02*
X181243741Y-196593328D01*
X181243741Y-196593328D02*
X181100884Y-196593328D01*
X181100884Y-196593328D02*
X180886598Y-196521900D01*
X180886598Y-196521900D02*
X180743741Y-196379042D01*
X180743741Y-196379042D02*
X180672312Y-196236185D01*
X180672312Y-196236185D02*
X180600884Y-195950471D01*
X180600884Y-195950471D02*
X180600884Y-195736185D01*
X180600884Y-195736185D02*
X180672312Y-195450471D01*
X180672312Y-195450471D02*
X180743741Y-195307614D01*
X180743741Y-195307614D02*
X180886598Y-195164757D01*
X180886598Y-195164757D02*
X181100884Y-195093328D01*
X181100884Y-195093328D02*
X181243741Y-195093328D01*
X181243741Y-195093328D02*
X181458027Y-195164757D01*
X181458027Y-195164757D02*
X181529455Y-195236185D01*
X182815170Y-196593328D02*
X182815170Y-195807614D01*
X182815170Y-195807614D02*
X182743741Y-195664757D01*
X182743741Y-195664757D02*
X182600884Y-195593328D01*
X182600884Y-195593328D02*
X182315170Y-195593328D01*
X182315170Y-195593328D02*
X182172312Y-195664757D01*
X182815170Y-196521900D02*
X182672312Y-196593328D01*
X182672312Y-196593328D02*
X182315170Y-196593328D01*
X182315170Y-196593328D02*
X182172312Y-196521900D01*
X182172312Y-196521900D02*
X182100884Y-196379042D01*
X182100884Y-196379042D02*
X182100884Y-196236185D01*
X182100884Y-196236185D02*
X182172312Y-196093328D01*
X182172312Y-196093328D02*
X182315170Y-196021900D01*
X182315170Y-196021900D02*
X182672312Y-196021900D01*
X182672312Y-196021900D02*
X182815170Y-195950471D01*
X184172313Y-196593328D02*
X184172313Y-195093328D01*
X184172313Y-196521900D02*
X184029455Y-196593328D01*
X184029455Y-196593328D02*
X183743741Y-196593328D01*
X183743741Y-196593328D02*
X183600884Y-196521900D01*
X183600884Y-196521900D02*
X183529455Y-196450471D01*
X183529455Y-196450471D02*
X183458027Y-196307614D01*
X183458027Y-196307614D02*
X183458027Y-195879042D01*
X183458027Y-195879042D02*
X183529455Y-195736185D01*
X183529455Y-195736185D02*
X183600884Y-195664757D01*
X183600884Y-195664757D02*
X183743741Y-195593328D01*
X183743741Y-195593328D02*
X184029455Y-195593328D01*
X184029455Y-195593328D02*
X184172313Y-195664757D01*
X186029455Y-195807614D02*
X186529455Y-195807614D01*
X186743741Y-196593328D02*
X186029455Y-196593328D01*
X186029455Y-196593328D02*
X186029455Y-195093328D01*
X186029455Y-195093328D02*
X186743741Y-195093328D01*
X187386598Y-196450471D02*
X187458027Y-196521900D01*
X187458027Y-196521900D02*
X187386598Y-196593328D01*
X187386598Y-196593328D02*
X187315170Y-196521900D01*
X187315170Y-196521900D02*
X187386598Y-196450471D01*
X187386598Y-196450471D02*
X187386598Y-196593328D01*
X188100884Y-196593328D02*
X188100884Y-195093328D01*
X188100884Y-195093328D02*
X188458027Y-195093328D01*
X188458027Y-195093328D02*
X188672313Y-195164757D01*
X188672313Y-195164757D02*
X188815170Y-195307614D01*
X188815170Y-195307614D02*
X188886599Y-195450471D01*
X188886599Y-195450471D02*
X188958027Y-195736185D01*
X188958027Y-195736185D02*
X188958027Y-195950471D01*
X188958027Y-195950471D02*
X188886599Y-196236185D01*
X188886599Y-196236185D02*
X188815170Y-196379042D01*
X188815170Y-196379042D02*
X188672313Y-196521900D01*
X188672313Y-196521900D02*
X188458027Y-196593328D01*
X188458027Y-196593328D02*
X188100884Y-196593328D01*
X189600884Y-196450471D02*
X189672313Y-196521900D01*
X189672313Y-196521900D02*
X189600884Y-196593328D01*
X189600884Y-196593328D02*
X189529456Y-196521900D01*
X189529456Y-196521900D02*
X189600884Y-196450471D01*
X189600884Y-196450471D02*
X189600884Y-196593328D01*
X190243742Y-196164757D02*
X190958028Y-196164757D01*
X190100885Y-196593328D02*
X190600885Y-195093328D01*
X190600885Y-195093328D02*
X191100885Y-196593328D01*
X191600884Y-196450471D02*
X191672313Y-196521900D01*
X191672313Y-196521900D02*
X191600884Y-196593328D01*
X191600884Y-196593328D02*
X191529456Y-196521900D01*
X191529456Y-196521900D02*
X191600884Y-196450471D01*
X191600884Y-196450471D02*
X191600884Y-196593328D01*
X193529456Y-196593328D02*
X193815170Y-196593328D01*
X193815170Y-196593328D02*
X193958027Y-196521900D01*
X193958027Y-196521900D02*
X194029456Y-196450471D01*
X194029456Y-196450471D02*
X194172313Y-196236185D01*
X194172313Y-196236185D02*
X194243742Y-195950471D01*
X194243742Y-195950471D02*
X194243742Y-195379042D01*
X194243742Y-195379042D02*
X194172313Y-195236185D01*
X194172313Y-195236185D02*
X194100885Y-195164757D01*
X194100885Y-195164757D02*
X193958027Y-195093328D01*
X193958027Y-195093328D02*
X193672313Y-195093328D01*
X193672313Y-195093328D02*
X193529456Y-195164757D01*
X193529456Y-195164757D02*
X193458027Y-195236185D01*
X193458027Y-195236185D02*
X193386599Y-195379042D01*
X193386599Y-195379042D02*
X193386599Y-195736185D01*
X193386599Y-195736185D02*
X193458027Y-195879042D01*
X193458027Y-195879042D02*
X193529456Y-195950471D01*
X193529456Y-195950471D02*
X193672313Y-196021900D01*
X193672313Y-196021900D02*
X193958027Y-196021900D01*
X193958027Y-196021900D02*
X194100885Y-195950471D01*
X194100885Y-195950471D02*
X194172313Y-195879042D01*
X194172313Y-195879042D02*
X194243742Y-195736185D01*
X194886598Y-196450471D02*
X194958027Y-196521900D01*
X194958027Y-196521900D02*
X194886598Y-196593328D01*
X194886598Y-196593328D02*
X194815170Y-196521900D01*
X194815170Y-196521900D02*
X194886598Y-196450471D01*
X194886598Y-196450471D02*
X194886598Y-196593328D01*
X195886599Y-195093328D02*
X196029456Y-195093328D01*
X196029456Y-195093328D02*
X196172313Y-195164757D01*
X196172313Y-195164757D02*
X196243742Y-195236185D01*
X196243742Y-195236185D02*
X196315170Y-195379042D01*
X196315170Y-195379042D02*
X196386599Y-195664757D01*
X196386599Y-195664757D02*
X196386599Y-196021900D01*
X196386599Y-196021900D02*
X196315170Y-196307614D01*
X196315170Y-196307614D02*
X196243742Y-196450471D01*
X196243742Y-196450471D02*
X196172313Y-196521900D01*
X196172313Y-196521900D02*
X196029456Y-196593328D01*
X196029456Y-196593328D02*
X195886599Y-196593328D01*
X195886599Y-196593328D02*
X195743742Y-196521900D01*
X195743742Y-196521900D02*
X195672313Y-196450471D01*
X195672313Y-196450471D02*
X195600884Y-196307614D01*
X195600884Y-196307614D02*
X195529456Y-196021900D01*
X195529456Y-196021900D02*
X195529456Y-195664757D01*
X195529456Y-195664757D02*
X195600884Y-195379042D01*
X195600884Y-195379042D02*
X195672313Y-195236185D01*
X195672313Y-195236185D02*
X195743742Y-195164757D01*
X195743742Y-195164757D02*
X195886599Y-195093328D01*
X197029455Y-196450471D02*
X197100884Y-196521900D01*
X197100884Y-196521900D02*
X197029455Y-196593328D01*
X197029455Y-196593328D02*
X196958027Y-196521900D01*
X196958027Y-196521900D02*
X197029455Y-196450471D01*
X197029455Y-196450471D02*
X197029455Y-196593328D01*
X197600884Y-195093328D02*
X198529456Y-195093328D01*
X198529456Y-195093328D02*
X198029456Y-195664757D01*
X198029456Y-195664757D02*
X198243741Y-195664757D01*
X198243741Y-195664757D02*
X198386599Y-195736185D01*
X198386599Y-195736185D02*
X198458027Y-195807614D01*
X198458027Y-195807614D02*
X198529456Y-195950471D01*
X198529456Y-195950471D02*
X198529456Y-196307614D01*
X198529456Y-196307614D02*
X198458027Y-196450471D01*
X198458027Y-196450471D02*
X198386599Y-196521900D01*
X198386599Y-196521900D02*
X198243741Y-196593328D01*
X198243741Y-196593328D02*
X197815170Y-196593328D01*
X197815170Y-196593328D02*
X197672313Y-196521900D01*
X197672313Y-196521900D02*
X197600884Y-196450471D01*
D10*
D11*
X177002200Y-191507200D02*
X285002200Y-191507200D01*
D10*
D12*
X264413853Y-193785528D02*
X263913853Y-193071242D01*
X263556710Y-193785528D02*
X263556710Y-192285528D01*
X263556710Y-192285528D02*
X264128139Y-192285528D01*
X264128139Y-192285528D02*
X264270996Y-192356957D01*
X264270996Y-192356957D02*
X264342425Y-192428385D01*
X264342425Y-192428385D02*
X264413853Y-192571242D01*
X264413853Y-192571242D02*
X264413853Y-192785528D01*
X264413853Y-192785528D02*
X264342425Y-192928385D01*
X264342425Y-192928385D02*
X264270996Y-192999814D01*
X264270996Y-192999814D02*
X264128139Y-193071242D01*
X264128139Y-193071242D02*
X263556710Y-193071242D01*
X265628139Y-193714100D02*
X265485282Y-193785528D01*
X265485282Y-193785528D02*
X265199568Y-193785528D01*
X265199568Y-193785528D02*
X265056710Y-193714100D01*
X265056710Y-193714100D02*
X264985282Y-193571242D01*
X264985282Y-193571242D02*
X264985282Y-192999814D01*
X264985282Y-192999814D02*
X265056710Y-192856957D01*
X265056710Y-192856957D02*
X265199568Y-192785528D01*
X265199568Y-192785528D02*
X265485282Y-192785528D01*
X265485282Y-192785528D02*
X265628139Y-192856957D01*
X265628139Y-192856957D02*
X265699568Y-192999814D01*
X265699568Y-192999814D02*
X265699568Y-193142671D01*
X265699568Y-193142671D02*
X264985282Y-193285528D01*
X266199567Y-192785528D02*
X266556710Y-193785528D01*
X266556710Y-193785528D02*
X266913853Y-192785528D01*
X267485281Y-193642671D02*
X267556710Y-193714100D01*
X267556710Y-193714100D02*
X267485281Y-193785528D01*
X267485281Y-193785528D02*
X267413853Y-193714100D01*
X267413853Y-193714100D02*
X267485281Y-193642671D01*
X267485281Y-193642671D02*
X267485281Y-193785528D01*
X267485281Y-192856957D02*
X267556710Y-192928385D01*
X267556710Y-192928385D02*
X267485281Y-192999814D01*
X267485281Y-192999814D02*
X267413853Y-192928385D01*
X267413853Y-192928385D02*
X267485281Y-192856957D01*
X267485281Y-192856957D02*
X267485281Y-192999814D01*
D10*
D11*
X178386598Y-193721900D02*
X178600884Y-193793328D01*
X178600884Y-193793328D02*
X178958026Y-193793328D01*
X178958026Y-193793328D02*
X179100884Y-193721900D01*
X179100884Y-193721900D02*
X179172312Y-193650471D01*
X179172312Y-193650471D02*
X179243741Y-193507614D01*
X179243741Y-193507614D02*
X179243741Y-193364757D01*
X179243741Y-193364757D02*
X179172312Y-193221900D01*
X179172312Y-193221900D02*
X179100884Y-193150471D01*
X179100884Y-193150471D02*
X178958026Y-193079042D01*
X178958026Y-193079042D02*
X178672312Y-193007614D01*
X178672312Y-193007614D02*
X178529455Y-192936185D01*
X178529455Y-192936185D02*
X178458026Y-192864757D01*
X178458026Y-192864757D02*
X178386598Y-192721900D01*
X178386598Y-192721900D02*
X178386598Y-192579042D01*
X178386598Y-192579042D02*
X178458026Y-192436185D01*
X178458026Y-192436185D02*
X178529455Y-192364757D01*
X178529455Y-192364757D02*
X178672312Y-192293328D01*
X178672312Y-192293328D02*
X179029455Y-192293328D01*
X179029455Y-192293328D02*
X179243741Y-192364757D01*
X179886597Y-193793328D02*
X179886597Y-192793328D01*
X179886597Y-192293328D02*
X179815169Y-192364757D01*
X179815169Y-192364757D02*
X179886597Y-192436185D01*
X179886597Y-192436185D02*
X179958026Y-192364757D01*
X179958026Y-192364757D02*
X179886597Y-192293328D01*
X179886597Y-192293328D02*
X179886597Y-192436185D01*
X180458026Y-192793328D02*
X181243741Y-192793328D01*
X181243741Y-192793328D02*
X180458026Y-193793328D01*
X180458026Y-193793328D02*
X181243741Y-193793328D01*
X182386598Y-193721900D02*
X182243741Y-193793328D01*
X182243741Y-193793328D02*
X181958027Y-193793328D01*
X181958027Y-193793328D02*
X181815169Y-193721900D01*
X181815169Y-193721900D02*
X181743741Y-193579042D01*
X181743741Y-193579042D02*
X181743741Y-193007614D01*
X181743741Y-193007614D02*
X181815169Y-192864757D01*
X181815169Y-192864757D02*
X181958027Y-192793328D01*
X181958027Y-192793328D02*
X182243741Y-192793328D01*
X182243741Y-192793328D02*
X182386598Y-192864757D01*
X182386598Y-192864757D02*
X182458027Y-193007614D01*
X182458027Y-193007614D02*
X182458027Y-193150471D01*
X182458027Y-193150471D02*
X181743741Y-193293328D01*
X183100883Y-193650471D02*
X183172312Y-193721900D01*
X183172312Y-193721900D02*
X183100883Y-193793328D01*
X183100883Y-193793328D02*
X183029455Y-193721900D01*
X183029455Y-193721900D02*
X183100883Y-193650471D01*
X183100883Y-193650471D02*
X183100883Y-193793328D01*
X183100883Y-192864757D02*
X183172312Y-192936185D01*
X183172312Y-192936185D02*
X183100883Y-193007614D01*
X183100883Y-193007614D02*
X183029455Y-192936185D01*
X183029455Y-192936185D02*
X183100883Y-192864757D01*
X183100883Y-192864757D02*
X183100883Y-193007614D01*
X184886598Y-193364757D02*
X185600884Y-193364757D01*
X184743741Y-193793328D02*
X185243741Y-192293328D01*
X185243741Y-192293328D02*
X185743741Y-193793328D01*
X186886598Y-192793328D02*
X186886598Y-193793328D01*
X186529455Y-192221900D02*
X186172312Y-193293328D01*
X186172312Y-193293328D02*
X187100883Y-193293328D01*
D10*
D11*
X263458026Y-196593328D02*
X263458026Y-195093328D01*
X264815170Y-196593328D02*
X264815170Y-195093328D01*
X264815170Y-196521900D02*
X264672312Y-196593328D01*
X264672312Y-196593328D02*
X264386598Y-196593328D01*
X264386598Y-196593328D02*
X264243741Y-196521900D01*
X264243741Y-196521900D02*
X264172312Y-196450471D01*
X264172312Y-196450471D02*
X264100884Y-196307614D01*
X264100884Y-196307614D02*
X264100884Y-195879042D01*
X264100884Y-195879042D02*
X264172312Y-195736185D01*
X264172312Y-195736185D02*
X264243741Y-195664757D01*
X264243741Y-195664757D02*
X264386598Y-195593328D01*
X264386598Y-195593328D02*
X264672312Y-195593328D01*
X264672312Y-195593328D02*
X264815170Y-195664757D01*
X265529455Y-196450471D02*
X265600884Y-196521900D01*
X265600884Y-196521900D02*
X265529455Y-196593328D01*
X265529455Y-196593328D02*
X265458027Y-196521900D01*
X265458027Y-196521900D02*
X265529455Y-196450471D01*
X265529455Y-196450471D02*
X265529455Y-196593328D01*
X265529455Y-195664757D02*
X265600884Y-195736185D01*
X265600884Y-195736185D02*
X265529455Y-195807614D01*
X265529455Y-195807614D02*
X265458027Y-195736185D01*
X265458027Y-195736185D02*
X265529455Y-195664757D01*
X265529455Y-195664757D02*
X265529455Y-195807614D01*
X267315170Y-195236185D02*
X267386598Y-195164757D01*
X267386598Y-195164757D02*
X267529456Y-195093328D01*
X267529456Y-195093328D02*
X267886598Y-195093328D01*
X267886598Y-195093328D02*
X268029456Y-195164757D01*
X268029456Y-195164757D02*
X268100884Y-195236185D01*
X268100884Y-195236185D02*
X268172313Y-195379042D01*
X268172313Y-195379042D02*
X268172313Y-195521900D01*
X268172313Y-195521900D02*
X268100884Y-195736185D01*
X268100884Y-195736185D02*
X267243741Y-196593328D01*
X267243741Y-196593328D02*
X268172313Y-196593328D01*
X269886598Y-195021900D02*
X268600884Y-196950471D01*
X270458027Y-196593328D02*
X270743741Y-196593328D01*
X270743741Y-196593328D02*
X270886598Y-196521900D01*
X270886598Y-196521900D02*
X270958027Y-196450471D01*
X270958027Y-196450471D02*
X271100884Y-196236185D01*
X271100884Y-196236185D02*
X271172313Y-195950471D01*
X271172313Y-195950471D02*
X271172313Y-195379042D01*
X271172313Y-195379042D02*
X271100884Y-195236185D01*
X271100884Y-195236185D02*
X271029456Y-195164757D01*
X271029456Y-195164757D02*
X270886598Y-195093328D01*
X270886598Y-195093328D02*
X270600884Y-195093328D01*
X270600884Y-195093328D02*
X270458027Y-195164757D01*
X270458027Y-195164757D02*
X270386598Y-195236185D01*
X270386598Y-195236185D02*
X270315170Y-195379042D01*
X270315170Y-195379042D02*
X270315170Y-195736185D01*
X270315170Y-195736185D02*
X270386598Y-195879042D01*
X270386598Y-195879042D02*
X270458027Y-195950471D01*
X270458027Y-195950471D02*
X270600884Y-196021900D01*
X270600884Y-196021900D02*
X270886598Y-196021900D01*
X270886598Y-196021900D02*
X271029456Y-195950471D01*
X271029456Y-195950471D02*
X271100884Y-195879042D01*
X271100884Y-195879042D02*
X271172313Y-195736185D01*
D10*
D11*
X177002200Y-187507200D02*
X285002200Y-187507200D01*
D10*
D13*
X178693928Y-188211638D02*
X179836785Y-188211638D01*
X179015357Y-190211638D02*
X179265357Y-188211638D01*
X180253452Y-190211638D02*
X180420119Y-188878304D01*
X180503452Y-188211638D02*
X180396309Y-188306876D01*
X180396309Y-188306876D02*
X180479643Y-188402114D01*
X180479643Y-188402114D02*
X180586786Y-188306876D01*
X180586786Y-188306876D02*
X180503452Y-188211638D01*
X180503452Y-188211638D02*
X180479643Y-188402114D01*
X181086786Y-188878304D02*
X181848690Y-188878304D01*
X181455833Y-188211638D02*
X181241548Y-189925923D01*
X181241548Y-189925923D02*
X181312976Y-190116400D01*
X181312976Y-190116400D02*
X181491548Y-190211638D01*
X181491548Y-190211638D02*
X181682024Y-190211638D01*
X182634405Y-190211638D02*
X182455833Y-190116400D01*
X182455833Y-190116400D02*
X182384405Y-189925923D01*
X182384405Y-189925923D02*
X182598690Y-188211638D01*
X184170119Y-190116400D02*
X183967738Y-190211638D01*
X183967738Y-190211638D02*
X183586785Y-190211638D01*
X183586785Y-190211638D02*
X183408214Y-190116400D01*
X183408214Y-190116400D02*
X183336785Y-189925923D01*
X183336785Y-189925923D02*
X183432024Y-189164019D01*
X183432024Y-189164019D02*
X183551071Y-188973542D01*
X183551071Y-188973542D02*
X183753452Y-188878304D01*
X183753452Y-188878304D02*
X184134404Y-188878304D01*
X184134404Y-188878304D02*
X184312976Y-188973542D01*
X184312976Y-188973542D02*
X184384404Y-189164019D01*
X184384404Y-189164019D02*
X184360595Y-189354495D01*
X184360595Y-189354495D02*
X183384404Y-189544971D01*
X185134405Y-190021161D02*
X185217738Y-190116400D01*
X185217738Y-190116400D02*
X185110595Y-190211638D01*
X185110595Y-190211638D02*
X185027262Y-190116400D01*
X185027262Y-190116400D02*
X185134405Y-190021161D01*
X185134405Y-190021161D02*
X185110595Y-190211638D01*
X185265357Y-188973542D02*
X185348690Y-189068780D01*
X185348690Y-189068780D02*
X185241548Y-189164019D01*
X185241548Y-189164019D02*
X185158214Y-189068780D01*
X185158214Y-189068780D02*
X185265357Y-188973542D01*
X185265357Y-188973542D02*
X185241548Y-189164019D01*
D10*
D11*
X178958026Y-185607614D02*
X178458026Y-185607614D01*
X178458026Y-186393328D02*
X178458026Y-184893328D01*
X178458026Y-184893328D02*
X179172312Y-184893328D01*
X179743740Y-186393328D02*
X179743740Y-185393328D01*
X179743740Y-184893328D02*
X179672312Y-184964757D01*
X179672312Y-184964757D02*
X179743740Y-185036185D01*
X179743740Y-185036185D02*
X179815169Y-184964757D01*
X179815169Y-184964757D02*
X179743740Y-184893328D01*
X179743740Y-184893328D02*
X179743740Y-185036185D01*
X180672312Y-186393328D02*
X180529455Y-186321900D01*
X180529455Y-186321900D02*
X180458026Y-186179042D01*
X180458026Y-186179042D02*
X180458026Y-184893328D01*
X181815169Y-186321900D02*
X181672312Y-186393328D01*
X181672312Y-186393328D02*
X181386598Y-186393328D01*
X181386598Y-186393328D02*
X181243740Y-186321900D01*
X181243740Y-186321900D02*
X181172312Y-186179042D01*
X181172312Y-186179042D02*
X181172312Y-185607614D01*
X181172312Y-185607614D02*
X181243740Y-185464757D01*
X181243740Y-185464757D02*
X181386598Y-185393328D01*
X181386598Y-185393328D02*
X181672312Y-185393328D01*
X181672312Y-185393328D02*
X181815169Y-185464757D01*
X181815169Y-185464757D02*
X181886598Y-185607614D01*
X181886598Y-185607614D02*
X181886598Y-185750471D01*
X181886598Y-185750471D02*
X181172312Y-185893328D01*
X182529454Y-186250471D02*
X182600883Y-186321900D01*
X182600883Y-186321900D02*
X182529454Y-186393328D01*
X182529454Y-186393328D02*
X182458026Y-186321900D01*
X182458026Y-186321900D02*
X182529454Y-186250471D01*
X182529454Y-186250471D02*
X182529454Y-186393328D01*
X182529454Y-185464757D02*
X182600883Y-185536185D01*
X182600883Y-185536185D02*
X182529454Y-185607614D01*
X182529454Y-185607614D02*
X182458026Y-185536185D01*
X182458026Y-185536185D02*
X182529454Y-185464757D01*
X182529454Y-185464757D02*
X182529454Y-185607614D01*
X184600883Y-186393328D02*
X184458026Y-186321900D01*
X184458026Y-186321900D02*
X184386597Y-186179042D01*
X184386597Y-186179042D02*
X184386597Y-184893328D01*
X185743740Y-186321900D02*
X185600883Y-186393328D01*
X185600883Y-186393328D02*
X185315169Y-186393328D01*
X185315169Y-186393328D02*
X185172311Y-186321900D01*
X185172311Y-186321900D02*
X185100883Y-186179042D01*
X185100883Y-186179042D02*
X185100883Y-185607614D01*
X185100883Y-185607614D02*
X185172311Y-185464757D01*
X185172311Y-185464757D02*
X185315169Y-185393328D01*
X185315169Y-185393328D02*
X185600883Y-185393328D01*
X185600883Y-185393328D02*
X185743740Y-185464757D01*
X185743740Y-185464757D02*
X185815169Y-185607614D01*
X185815169Y-185607614D02*
X185815169Y-185750471D01*
X185815169Y-185750471D02*
X185100883Y-185893328D01*
X187100883Y-186393328D02*
X187100883Y-184893328D01*
X187100883Y-186321900D02*
X186958025Y-186393328D01*
X186958025Y-186393328D02*
X186672311Y-186393328D01*
X186672311Y-186393328D02*
X186529454Y-186321900D01*
X186529454Y-186321900D02*
X186458025Y-186250471D01*
X186458025Y-186250471D02*
X186386597Y-186107614D01*
X186386597Y-186107614D02*
X186386597Y-185679042D01*
X186386597Y-185679042D02*
X186458025Y-185536185D01*
X186458025Y-185536185D02*
X186529454Y-185464757D01*
X186529454Y-185464757D02*
X186672311Y-185393328D01*
X186672311Y-185393328D02*
X186958025Y-185393328D01*
X186958025Y-185393328D02*
X187100883Y-185464757D01*
X188743740Y-185393328D02*
X189315168Y-185393328D01*
X188958025Y-184893328D02*
X188958025Y-186179042D01*
X188958025Y-186179042D02*
X189029454Y-186321900D01*
X189029454Y-186321900D02*
X189172311Y-186393328D01*
X189172311Y-186393328D02*
X189315168Y-186393328D01*
X190029454Y-186393328D02*
X189886597Y-186321900D01*
X189886597Y-186321900D02*
X189815168Y-186250471D01*
X189815168Y-186250471D02*
X189743740Y-186107614D01*
X189743740Y-186107614D02*
X189743740Y-185679042D01*
X189743740Y-185679042D02*
X189815168Y-185536185D01*
X189815168Y-185536185D02*
X189886597Y-185464757D01*
X189886597Y-185464757D02*
X190029454Y-185393328D01*
X190029454Y-185393328D02*
X190243740Y-185393328D01*
X190243740Y-185393328D02*
X190386597Y-185464757D01*
X190386597Y-185464757D02*
X190458026Y-185536185D01*
X190458026Y-185536185D02*
X190529454Y-185679042D01*
X190529454Y-185679042D02*
X190529454Y-186107614D01*
X190529454Y-186107614D02*
X190458026Y-186250471D01*
X190458026Y-186250471D02*
X190386597Y-186321900D01*
X190386597Y-186321900D02*
X190243740Y-186393328D01*
X190243740Y-186393328D02*
X190029454Y-186393328D01*
X191815169Y-185393328D02*
X191815169Y-186607614D01*
X191815169Y-186607614D02*
X191743740Y-186750471D01*
X191743740Y-186750471D02*
X191672311Y-186821900D01*
X191672311Y-186821900D02*
X191529454Y-186893328D01*
X191529454Y-186893328D02*
X191315169Y-186893328D01*
X191315169Y-186893328D02*
X191172311Y-186821900D01*
X191815169Y-186321900D02*
X191672311Y-186393328D01*
X191672311Y-186393328D02*
X191386597Y-186393328D01*
X191386597Y-186393328D02*
X191243740Y-186321900D01*
X191243740Y-186321900D02*
X191172311Y-186250471D01*
X191172311Y-186250471D02*
X191100883Y-186107614D01*
X191100883Y-186107614D02*
X191100883Y-185679042D01*
X191100883Y-185679042D02*
X191172311Y-185536185D01*
X191172311Y-185536185D02*
X191243740Y-185464757D01*
X191243740Y-185464757D02*
X191386597Y-185393328D01*
X191386597Y-185393328D02*
X191672311Y-185393328D01*
X191672311Y-185393328D02*
X191815169Y-185464757D01*
X193172312Y-185393328D02*
X193172312Y-186607614D01*
X193172312Y-186607614D02*
X193100883Y-186750471D01*
X193100883Y-186750471D02*
X193029454Y-186821900D01*
X193029454Y-186821900D02*
X192886597Y-186893328D01*
X192886597Y-186893328D02*
X192672312Y-186893328D01*
X192672312Y-186893328D02*
X192529454Y-186821900D01*
X193172312Y-186321900D02*
X193029454Y-186393328D01*
X193029454Y-186393328D02*
X192743740Y-186393328D01*
X192743740Y-186393328D02*
X192600883Y-186321900D01*
X192600883Y-186321900D02*
X192529454Y-186250471D01*
X192529454Y-186250471D02*
X192458026Y-186107614D01*
X192458026Y-186107614D02*
X192458026Y-185679042D01*
X192458026Y-185679042D02*
X192529454Y-185536185D01*
X192529454Y-185536185D02*
X192600883Y-185464757D01*
X192600883Y-185464757D02*
X192743740Y-185393328D01*
X192743740Y-185393328D02*
X193029454Y-185393328D01*
X193029454Y-185393328D02*
X193172312Y-185464757D01*
X194100883Y-186393328D02*
X193958026Y-186321900D01*
X193958026Y-186321900D02*
X193886597Y-186179042D01*
X193886597Y-186179042D02*
X193886597Y-184893328D01*
X195243740Y-186321900D02*
X195100883Y-186393328D01*
X195100883Y-186393328D02*
X194815169Y-186393328D01*
X194815169Y-186393328D02*
X194672311Y-186321900D01*
X194672311Y-186321900D02*
X194600883Y-186179042D01*
X194600883Y-186179042D02*
X194600883Y-185607614D01*
X194600883Y-185607614D02*
X194672311Y-185464757D01*
X194672311Y-185464757D02*
X194815169Y-185393328D01*
X194815169Y-185393328D02*
X195100883Y-185393328D01*
X195100883Y-185393328D02*
X195243740Y-185464757D01*
X195243740Y-185464757D02*
X195315169Y-185607614D01*
X195315169Y-185607614D02*
X195315169Y-185750471D01*
X195315169Y-185750471D02*
X194600883Y-185893328D01*
X195958025Y-186250471D02*
X196029454Y-186321900D01*
X196029454Y-186321900D02*
X195958025Y-186393328D01*
X195958025Y-186393328D02*
X195886597Y-186321900D01*
X195886597Y-186321900D02*
X195958025Y-186250471D01*
X195958025Y-186250471D02*
X195958025Y-186393328D01*
X196672311Y-186393328D02*
X196672311Y-184893328D01*
X196815169Y-185821900D02*
X197243740Y-186393328D01*
X197243740Y-185393328D02*
X196672311Y-185964757D01*
X197886597Y-186393328D02*
X197886597Y-185393328D01*
X197886597Y-184893328D02*
X197815169Y-184964757D01*
X197815169Y-184964757D02*
X197886597Y-185036185D01*
X197886597Y-185036185D02*
X197958026Y-184964757D01*
X197958026Y-184964757D02*
X197886597Y-184893328D01*
X197886597Y-184893328D02*
X197886597Y-185036185D01*
X199243741Y-186321900D02*
X199100883Y-186393328D01*
X199100883Y-186393328D02*
X198815169Y-186393328D01*
X198815169Y-186393328D02*
X198672312Y-186321900D01*
X198672312Y-186321900D02*
X198600883Y-186250471D01*
X198600883Y-186250471D02*
X198529455Y-186107614D01*
X198529455Y-186107614D02*
X198529455Y-185679042D01*
X198529455Y-185679042D02*
X198600883Y-185536185D01*
X198600883Y-185536185D02*
X198672312Y-185464757D01*
X198672312Y-185464757D02*
X198815169Y-185393328D01*
X198815169Y-185393328D02*
X199100883Y-185393328D01*
X199100883Y-185393328D02*
X199243741Y-185464757D01*
X200529455Y-186393328D02*
X200529455Y-185607614D01*
X200529455Y-185607614D02*
X200458026Y-185464757D01*
X200458026Y-185464757D02*
X200315169Y-185393328D01*
X200315169Y-185393328D02*
X200029455Y-185393328D01*
X200029455Y-185393328D02*
X199886597Y-185464757D01*
X200529455Y-186321900D02*
X200386597Y-186393328D01*
X200386597Y-186393328D02*
X200029455Y-186393328D01*
X200029455Y-186393328D02*
X199886597Y-186321900D01*
X199886597Y-186321900D02*
X199815169Y-186179042D01*
X199815169Y-186179042D02*
X199815169Y-186036185D01*
X199815169Y-186036185D02*
X199886597Y-185893328D01*
X199886597Y-185893328D02*
X200029455Y-185821900D01*
X200029455Y-185821900D02*
X200386597Y-185821900D01*
X200386597Y-185821900D02*
X200529455Y-185750471D01*
X201886598Y-186393328D02*
X201886598Y-184893328D01*
X201886598Y-186321900D02*
X201743740Y-186393328D01*
X201743740Y-186393328D02*
X201458026Y-186393328D01*
X201458026Y-186393328D02*
X201315169Y-186321900D01*
X201315169Y-186321900D02*
X201243740Y-186250471D01*
X201243740Y-186250471D02*
X201172312Y-186107614D01*
X201172312Y-186107614D02*
X201172312Y-185679042D01*
X201172312Y-185679042D02*
X201243740Y-185536185D01*
X201243740Y-185536185D02*
X201315169Y-185464757D01*
X201315169Y-185464757D02*
X201458026Y-185393328D01*
X201458026Y-185393328D02*
X201743740Y-185393328D01*
X201743740Y-185393328D02*
X201886598Y-185464757D01*
X202243741Y-186536185D02*
X203386598Y-186536185D01*
X203743740Y-185393328D02*
X203743740Y-186893328D01*
X203743740Y-185464757D02*
X203886598Y-185393328D01*
X203886598Y-185393328D02*
X204172312Y-185393328D01*
X204172312Y-185393328D02*
X204315169Y-185464757D01*
X204315169Y-185464757D02*
X204386598Y-185536185D01*
X204386598Y-185536185D02*
X204458026Y-185679042D01*
X204458026Y-185679042D02*
X204458026Y-186107614D01*
X204458026Y-186107614D02*
X204386598Y-186250471D01*
X204386598Y-186250471D02*
X204315169Y-186321900D01*
X204315169Y-186321900D02*
X204172312Y-186393328D01*
X204172312Y-186393328D02*
X203886598Y-186393328D01*
X203886598Y-186393328D02*
X203743740Y-186321900D01*
X205743741Y-186321900D02*
X205600883Y-186393328D01*
X205600883Y-186393328D02*
X205315169Y-186393328D01*
X205315169Y-186393328D02*
X205172312Y-186321900D01*
X205172312Y-186321900D02*
X205100883Y-186250471D01*
X205100883Y-186250471D02*
X205029455Y-186107614D01*
X205029455Y-186107614D02*
X205029455Y-185679042D01*
X205029455Y-185679042D02*
X205100883Y-185536185D01*
X205100883Y-185536185D02*
X205172312Y-185464757D01*
X205172312Y-185464757D02*
X205315169Y-185393328D01*
X205315169Y-185393328D02*
X205600883Y-185393328D01*
X205600883Y-185393328D02*
X205743741Y-185464757D01*
X206386597Y-186393328D02*
X206386597Y-184893328D01*
X206386597Y-185464757D02*
X206529455Y-185393328D01*
X206529455Y-185393328D02*
X206815169Y-185393328D01*
X206815169Y-185393328D02*
X206958026Y-185464757D01*
X206958026Y-185464757D02*
X207029455Y-185536185D01*
X207029455Y-185536185D02*
X207100883Y-185679042D01*
X207100883Y-185679042D02*
X207100883Y-186107614D01*
X207100883Y-186107614D02*
X207029455Y-186250471D01*
X207029455Y-186250471D02*
X206958026Y-186321900D01*
X206958026Y-186321900D02*
X206815169Y-186393328D01*
X206815169Y-186393328D02*
X206529455Y-186393328D01*
X206529455Y-186393328D02*
X206386597Y-186321900D01*
D10*
D11*
X177002200Y-181507200D02*
X285002200Y-181507200D01*
D10*
D11*
X178386598Y-183621900D02*
X178600884Y-183693328D01*
X178600884Y-183693328D02*
X178958026Y-183693328D01*
X178958026Y-183693328D02*
X179100884Y-183621900D01*
X179100884Y-183621900D02*
X179172312Y-183550471D01*
X179172312Y-183550471D02*
X179243741Y-183407614D01*
X179243741Y-183407614D02*
X179243741Y-183264757D01*
X179243741Y-183264757D02*
X179172312Y-183121900D01*
X179172312Y-183121900D02*
X179100884Y-183050471D01*
X179100884Y-183050471D02*
X178958026Y-182979042D01*
X178958026Y-182979042D02*
X178672312Y-182907614D01*
X178672312Y-182907614D02*
X178529455Y-182836185D01*
X178529455Y-182836185D02*
X178458026Y-182764757D01*
X178458026Y-182764757D02*
X178386598Y-182621900D01*
X178386598Y-182621900D02*
X178386598Y-182479042D01*
X178386598Y-182479042D02*
X178458026Y-182336185D01*
X178458026Y-182336185D02*
X178529455Y-182264757D01*
X178529455Y-182264757D02*
X178672312Y-182193328D01*
X178672312Y-182193328D02*
X179029455Y-182193328D01*
X179029455Y-182193328D02*
X179243741Y-182264757D01*
X179886597Y-183693328D02*
X179886597Y-182193328D01*
X180529455Y-183693328D02*
X180529455Y-182907614D01*
X180529455Y-182907614D02*
X180458026Y-182764757D01*
X180458026Y-182764757D02*
X180315169Y-182693328D01*
X180315169Y-182693328D02*
X180100883Y-182693328D01*
X180100883Y-182693328D02*
X179958026Y-182764757D01*
X179958026Y-182764757D02*
X179886597Y-182836185D01*
X181815169Y-183621900D02*
X181672312Y-183693328D01*
X181672312Y-183693328D02*
X181386598Y-183693328D01*
X181386598Y-183693328D02*
X181243740Y-183621900D01*
X181243740Y-183621900D02*
X181172312Y-183479042D01*
X181172312Y-183479042D02*
X181172312Y-182907614D01*
X181172312Y-182907614D02*
X181243740Y-182764757D01*
X181243740Y-182764757D02*
X181386598Y-182693328D01*
X181386598Y-182693328D02*
X181672312Y-182693328D01*
X181672312Y-182693328D02*
X181815169Y-182764757D01*
X181815169Y-182764757D02*
X181886598Y-182907614D01*
X181886598Y-182907614D02*
X181886598Y-183050471D01*
X181886598Y-183050471D02*
X181172312Y-183193328D01*
X183100883Y-183621900D02*
X182958026Y-183693328D01*
X182958026Y-183693328D02*
X182672312Y-183693328D01*
X182672312Y-183693328D02*
X182529454Y-183621900D01*
X182529454Y-183621900D02*
X182458026Y-183479042D01*
X182458026Y-183479042D02*
X182458026Y-182907614D01*
X182458026Y-182907614D02*
X182529454Y-182764757D01*
X182529454Y-182764757D02*
X182672312Y-182693328D01*
X182672312Y-182693328D02*
X182958026Y-182693328D01*
X182958026Y-182693328D02*
X183100883Y-182764757D01*
X183100883Y-182764757D02*
X183172312Y-182907614D01*
X183172312Y-182907614D02*
X183172312Y-183050471D01*
X183172312Y-183050471D02*
X182458026Y-183193328D01*
X183600883Y-182693328D02*
X184172311Y-182693328D01*
X183815168Y-182193328D02*
X183815168Y-183479042D01*
X183815168Y-183479042D02*
X183886597Y-183621900D01*
X183886597Y-183621900D02*
X184029454Y-183693328D01*
X184029454Y-183693328D02*
X184172311Y-183693328D01*
X184672311Y-183550471D02*
X184743740Y-183621900D01*
X184743740Y-183621900D02*
X184672311Y-183693328D01*
X184672311Y-183693328D02*
X184600883Y-183621900D01*
X184600883Y-183621900D02*
X184672311Y-183550471D01*
X184672311Y-183550471D02*
X184672311Y-183693328D01*
X184672311Y-182764757D02*
X184743740Y-182836185D01*
X184743740Y-182836185D02*
X184672311Y-182907614D01*
X184672311Y-182907614D02*
X184600883Y-182836185D01*
X184600883Y-182836185D02*
X184672311Y-182764757D01*
X184672311Y-182764757D02*
X184672311Y-182907614D01*
D10*
D11*
X197002200Y-191507200D02*
X197002200Y-194507200D01*
D10*
D11*
X261002200Y-191507200D02*
X261002200Y-198007200D01*
D14*
%TO.P,R2,1*%
%TO.N,Net-(D1-A)*%
X135690000Y-102000000D03*
%TO.P,R2,2*%
%TO.N,Net-(U1-AREF{slash}PB0)*%
X143310000Y-102000000D03*
%TD*%
%TO.P,R1,1*%
%TO.N,VDD*%
X136270000Y-94030000D03*
%TO.P,R1,2*%
%TO.N,Net-(U1-PB1)*%
X143890000Y-94030000D03*
%TD*%
D15*
%TO.P,U1,1,~{RESET}/PB5*%
%TO.N,unconnected-(U1-~{RESET}{slash}PB5-Pad1)*%
X105695000Y-71190000D03*
D14*
%TO.P,U1,2,XTAL1/PB3*%
%TO.N,unconnected-(U1-XTAL1{slash}PB3-Pad2)*%
X105695000Y-73730000D03*
%TO.P,U1,3,XTAL2/PB4*%
%TO.N,unconnected-(U1-XTAL2{slash}PB4-Pad3)*%
X105695000Y-76270000D03*
%TO.P,U1,4,GND*%
%TO.N,Net-(D1-A)*%
X105695000Y-78810000D03*
%TO.P,U1,5,AREF/PB0*%
%TO.N,Net-(U1-AREF{slash}PB0)*%
X113315000Y-78810000D03*
%TO.P,U1,6,PB1*%
%TO.N,Net-(U1-PB1)*%
X113315000Y-76270000D03*
%TO.P,U1,7,PB2*%
%TO.N,unconnected-(U1-PB2-Pad7)*%
X113315000Y-73730000D03*
%TO.P,U1,8,VCC*%
%TO.N,+3.3V*%
X113315000Y-71190000D03*
%TD*%
D16*
%TO.P,SW1,1,1*%
%TO.N,Net-(D1-A)*%
X139250000Y-66250000D03*
X145750000Y-66250000D03*
%TO.P,SW1,2,2*%
%TO.N,Net-(U1-PB1)*%
X139250000Y-70750000D03*
X145750000Y-70750000D03*
%TD*%
D17*
%TO.P,D1,1,K*%
%TO.N,Net-(D1-A)*%
X108500000Y-98000000D03*
D18*
%TO.P,D1,2,A*%
X111040000Y-98000000D03*
%TD*%
D19*
%TO.N,Net-(D1-A)*%
X106000000Y-98000000D02*
X108500000Y-98000000D01*
X104500000Y-96500000D02*
X106000000Y-98000000D01*
X105500000Y-95500000D02*
X104500000Y-96500000D01*
X108500000Y-95500000D02*
X105500000Y-95500000D01*
X135690000Y-102000000D02*
X110500000Y-102000000D01*
X110500000Y-102000000D02*
X111040000Y-101460000D01*
X111040000Y-101460000D02*
X111040000Y-98000000D01*
X105695000Y-92695000D02*
X108500000Y-95500000D01*
X105695000Y-78810000D02*
X105695000Y-92695000D01*
%TO.N,Net-(U1-PB1)*%
X143890000Y-92603203D02*
G75*
G03*
X139496603Y-81996599I-15000000J3D01*
G01*
%TO.N,Net-(D1-A)*%
X126786797Y-72500000D02*
G75*
G03*
X137393401Y-68106603I3J15000000D01*
G01*
%TO.N,Net-(U1-AREF{slash}PB0)*%
X118988630Y-78810000D02*
X113315000Y-78810000D01*
X142178630Y-102000000D02*
X118988630Y-78810000D01*
X143310000Y-102000000D02*
X142178630Y-102000000D01*
%TO.N,Net-(U1-PB1)*%
X139496601Y-81996601D02*
X133770000Y-76270000D01*
X143890000Y-94030000D02*
X143890000Y-92603203D01*
X133770000Y-76270000D02*
X133730000Y-76270000D01*
X133730000Y-76270000D02*
X113315000Y-76270000D01*
X139250000Y-70750000D02*
X133730000Y-76270000D01*
X139250000Y-70750000D02*
X145750000Y-70750000D01*
%TO.N,Net-(D1-A)*%
X145750000Y-66250000D02*
X139250000Y-66250000D01*
X112005000Y-72500000D02*
X126786797Y-72500000D01*
X137393399Y-68106601D02*
X139250000Y-66250000D01*
X105695000Y-78810000D02*
X112005000Y-72500000D01*
%TD*%
%TA.AperFunction,Conductor*%
%TO.N,VDD*%
G36*
X152942539Y-59520185D02*
G01*
X152988294Y-59572989D01*
X152999500Y-59624500D01*
X152999500Y-109375500D01*
X152979815Y-109442539D01*
X152927011Y-109488294D01*
X152875500Y-109499500D01*
X94374500Y-109499500D01*
X94307461Y-109479815D01*
X94261706Y-109427011D01*
X94250500Y-109375500D01*
X94250500Y-96579054D01*
X103899498Y-96579054D01*
X103899499Y-96579057D01*
X103940423Y-96731785D01*
X104019481Y-96868716D01*
X104019483Y-96868718D01*
X105515139Y-98364374D01*
X105515149Y-98364385D01*
X105519479Y-98368715D01*
X105519480Y-98368716D01*
X105631284Y-98480520D01*
X105631286Y-98480521D01*
X105631290Y-98480524D01*
X105768209Y-98559573D01*
X105768216Y-98559577D01*
X105880019Y-98589534D01*
X105920942Y-98600500D01*
X105920943Y-98600500D01*
X106975501Y-98600500D01*
X107042540Y-98620185D01*
X107088295Y-98672989D01*
X107099501Y-98724500D01*
X107099501Y-98947876D01*
X107105908Y-99007483D01*
X107156202Y-99142328D01*
X107156206Y-99142335D01*
X107242452Y-99257544D01*
X107242455Y-99257547D01*
X107357664Y-99343793D01*
X107357671Y-99343797D01*
X107492517Y-99394091D01*
X107492516Y-99394091D01*
X107499444Y-99394835D01*
X107552127Y-99400500D01*
X109447872Y-99400499D01*
X109507483Y-99394091D01*
X109642331Y-99343796D01*
X109757546Y-99257546D01*
X109843796Y-99142331D01*
X109871429Y-99068243D01*
X109873601Y-99062420D01*
X109915471Y-99006486D01*
X109980936Y-98982068D01*
X110049209Y-98996919D01*
X110077464Y-99018071D01*
X110127636Y-99068243D01*
X110127641Y-99068247D01*
X110305976Y-99197814D01*
X110371794Y-99231350D01*
X110422591Y-99279324D01*
X110439500Y-99341835D01*
X110439500Y-101159902D01*
X110419815Y-101226941D01*
X110403181Y-101247583D01*
X110019481Y-101631282D01*
X110019475Y-101631290D01*
X109984551Y-101691782D01*
X109984551Y-101691784D01*
X109940423Y-101768214D01*
X109940423Y-101768215D01*
X109899499Y-101920943D01*
X109899499Y-101920945D01*
X109899499Y-102079054D01*
X109899498Y-102079054D01*
X109940423Y-102231785D01*
X109969358Y-102281900D01*
X109969359Y-102281904D01*
X109969360Y-102281904D01*
X110019479Y-102368714D01*
X110019481Y-102368717D01*
X110131284Y-102480520D01*
X110218095Y-102530639D01*
X110218097Y-102530641D01*
X110256151Y-102552611D01*
X110268215Y-102559577D01*
X110420943Y-102600501D01*
X110420946Y-102600501D01*
X110586653Y-102600501D01*
X110586669Y-102600500D01*
X134460398Y-102600500D01*
X134527437Y-102620185D01*
X134570883Y-102668205D01*
X134577715Y-102681614D01*
X134698028Y-102847213D01*
X134842786Y-102991971D01*
X134997749Y-103104556D01*
X135008390Y-103112287D01*
X135124607Y-103171503D01*
X135190776Y-103205218D01*
X135190778Y-103205218D01*
X135190781Y-103205220D01*
X135295137Y-103239127D01*
X135385465Y-103268477D01*
X135486557Y-103284488D01*
X135587648Y-103300500D01*
X135587649Y-103300500D01*
X135792351Y-103300500D01*
X135792352Y-103300500D01*
X135994534Y-103268477D01*
X136189219Y-103205220D01*
X136371610Y-103112287D01*
X136464590Y-103044732D01*
X136537213Y-102991971D01*
X136537215Y-102991968D01*
X136537219Y-102991966D01*
X136681966Y-102847219D01*
X136681968Y-102847215D01*
X136681971Y-102847213D01*
X136734732Y-102774590D01*
X136802287Y-102681610D01*
X136895220Y-102499219D01*
X136958477Y-102304534D01*
X136990500Y-102102352D01*
X136990500Y-101897648D01*
X136958477Y-101695465D01*
X136929127Y-101605137D01*
X136895220Y-101500781D01*
X136895218Y-101500778D01*
X136895218Y-101500776D01*
X136861503Y-101434607D01*
X136802287Y-101318390D01*
X136771126Y-101275500D01*
X136681971Y-101152786D01*
X136537213Y-101008028D01*
X136371613Y-100887715D01*
X136371612Y-100887714D01*
X136371610Y-100887713D01*
X136314653Y-100858691D01*
X136189223Y-100794781D01*
X135994534Y-100731522D01*
X135819995Y-100703878D01*
X135792352Y-100699500D01*
X135587648Y-100699500D01*
X135563329Y-100703351D01*
X135385465Y-100731522D01*
X135190776Y-100794781D01*
X135008386Y-100887715D01*
X134842786Y-101008028D01*
X134698028Y-101152786D01*
X134577715Y-101318385D01*
X134570883Y-101331795D01*
X134522909Y-101382591D01*
X134460398Y-101399500D01*
X111764500Y-101399500D01*
X111697461Y-101379815D01*
X111651706Y-101327011D01*
X111640500Y-101275500D01*
X111640500Y-99341835D01*
X111660185Y-99274796D01*
X111708206Y-99231350D01*
X111708547Y-99231175D01*
X111774022Y-99197815D01*
X111952365Y-99068242D01*
X112108242Y-98912365D01*
X112237815Y-98734022D01*
X112337895Y-98537606D01*
X112406015Y-98327951D01*
X112440500Y-98110222D01*
X112440500Y-97889778D01*
X112406015Y-97672049D01*
X112337895Y-97462394D01*
X112337895Y-97462393D01*
X112276825Y-97342539D01*
X112237815Y-97265978D01*
X112179501Y-97185715D01*
X112108247Y-97087641D01*
X112108243Y-97087636D01*
X111952363Y-96931756D01*
X111952358Y-96931752D01*
X111774025Y-96802187D01*
X111774024Y-96802186D01*
X111774022Y-96802185D01*
X111656791Y-96742452D01*
X111577606Y-96702104D01*
X111577603Y-96702103D01*
X111367952Y-96633985D01*
X111259086Y-96616742D01*
X111150222Y-96599500D01*
X110929778Y-96599500D01*
X110857201Y-96610995D01*
X110712047Y-96633985D01*
X110502396Y-96702103D01*
X110502393Y-96702104D01*
X110305974Y-96802187D01*
X110127641Y-96931752D01*
X110127636Y-96931756D01*
X110077463Y-96981929D01*
X110016140Y-97015413D01*
X109946448Y-97010428D01*
X109890515Y-96968557D01*
X109873601Y-96937580D01*
X109843797Y-96857671D01*
X109843793Y-96857664D01*
X109757547Y-96742455D01*
X109757544Y-96742452D01*
X109642335Y-96656206D01*
X109642328Y-96656202D01*
X109507482Y-96605908D01*
X109507483Y-96605908D01*
X109447883Y-96599501D01*
X109447881Y-96599500D01*
X109447873Y-96599500D01*
X109447864Y-96599500D01*
X107552129Y-96599500D01*
X107552123Y-96599501D01*
X107492516Y-96605908D01*
X107357671Y-96656202D01*
X107357664Y-96656206D01*
X107242455Y-96742452D01*
X107242452Y-96742455D01*
X107156206Y-96857664D01*
X107156202Y-96857671D01*
X107105908Y-96992517D01*
X107099501Y-97052116D01*
X107099500Y-97052135D01*
X107099500Y-97275500D01*
X107079815Y-97342539D01*
X107027011Y-97388294D01*
X106975500Y-97399500D01*
X106300097Y-97399500D01*
X106233058Y-97379815D01*
X106212416Y-97363181D01*
X105436916Y-96587681D01*
X105403431Y-96526358D01*
X105408415Y-96456666D01*
X105436916Y-96412319D01*
X105712417Y-96136819D01*
X105773740Y-96103334D01*
X105800098Y-96100500D01*
X108413331Y-96100500D01*
X108413347Y-96100501D01*
X108420943Y-96100501D01*
X108579054Y-96100501D01*
X108579057Y-96100501D01*
X108731785Y-96059577D01*
X108801233Y-96019481D01*
X108868716Y-95980520D01*
X108980520Y-95868716D01*
X109030639Y-95781904D01*
X109059577Y-95731785D01*
X109100501Y-95579057D01*
X109100501Y-95420943D01*
X109059577Y-95268215D01*
X109030639Y-95218095D01*
X108980520Y-95131284D01*
X108868716Y-95019480D01*
X108868715Y-95019479D01*
X108864385Y-95015149D01*
X108864374Y-95015139D01*
X106331819Y-92482584D01*
X106298334Y-92421261D01*
X106295500Y-92394903D01*
X106295500Y-80039601D01*
X106315185Y-79972562D01*
X106363206Y-79929116D01*
X106376610Y-79922287D01*
X106542219Y-79801966D01*
X106686966Y-79657219D01*
X106686968Y-79657215D01*
X106686971Y-79657213D01*
X106739732Y-79584590D01*
X106807287Y-79491610D01*
X106900220Y-79309219D01*
X106963477Y-79114534D01*
X106995500Y-78912352D01*
X106995500Y-78707648D01*
X106963477Y-78505466D01*
X106958825Y-78491151D01*
X106956832Y-78421312D01*
X106989075Y-78365158D01*
X111802821Y-73551413D01*
X111864142Y-73517930D01*
X111933834Y-73522914D01*
X111989767Y-73564786D01*
X112014184Y-73630250D01*
X112014500Y-73639096D01*
X112014500Y-73832351D01*
X112046522Y-74034534D01*
X112109781Y-74229223D01*
X112202715Y-74411613D01*
X112323028Y-74577213D01*
X112467786Y-74721971D01*
X112622749Y-74834556D01*
X112633390Y-74842287D01*
X112724840Y-74888883D01*
X112726080Y-74889515D01*
X112776876Y-74937490D01*
X112793671Y-75005311D01*
X112771134Y-75071446D01*
X112726080Y-75110485D01*
X112633386Y-75157715D01*
X112467786Y-75278028D01*
X112323028Y-75422786D01*
X112202715Y-75588386D01*
X112109781Y-75770776D01*
X112046522Y-75965465D01*
X112014500Y-76167648D01*
X112014500Y-76372351D01*
X112046522Y-76574534D01*
X112109781Y-76769223D01*
X112202715Y-76951613D01*
X112323028Y-77117213D01*
X112467786Y-77261971D01*
X112622749Y-77374556D01*
X112633390Y-77382287D01*
X112724840Y-77428883D01*
X112726080Y-77429515D01*
X112776876Y-77477490D01*
X112793671Y-77545311D01*
X112771134Y-77611446D01*
X112726080Y-77650485D01*
X112633386Y-77697715D01*
X112467786Y-77818028D01*
X112323028Y-77962786D01*
X112202715Y-78128386D01*
X112109781Y-78310776D01*
X112046522Y-78505465D01*
X112014500Y-78707648D01*
X112014500Y-78912351D01*
X112046522Y-79114534D01*
X112109781Y-79309223D01*
X112202715Y-79491613D01*
X112323028Y-79657213D01*
X112467786Y-79801971D01*
X112622749Y-79914556D01*
X112633390Y-79922287D01*
X112714499Y-79963614D01*
X112815776Y-80015218D01*
X112815778Y-80015218D01*
X112815781Y-80015220D01*
X112890818Y-80039601D01*
X113010465Y-80078477D01*
X113111557Y-80094488D01*
X113212648Y-80110500D01*
X113212649Y-80110500D01*
X113417351Y-80110500D01*
X113417352Y-80110500D01*
X113619534Y-80078477D01*
X113814219Y-80015220D01*
X113996610Y-79922287D01*
X114089590Y-79854732D01*
X114162213Y-79801971D01*
X114162215Y-79801968D01*
X114162219Y-79801966D01*
X114306966Y-79657219D01*
X114306968Y-79657215D01*
X114306971Y-79657213D01*
X114427284Y-79491614D01*
X114427285Y-79491613D01*
X114427287Y-79491610D01*
X114434117Y-79478204D01*
X114482091Y-79427409D01*
X114544602Y-79410500D01*
X118688533Y-79410500D01*
X118755572Y-79430185D01*
X118776213Y-79446818D01*
X141809914Y-102480520D01*
X141809916Y-102480521D01*
X141809920Y-102480524D01*
X141946839Y-102559573D01*
X141946842Y-102559575D01*
X141946846Y-102559577D01*
X142099573Y-102600501D01*
X142099575Y-102600501D01*
X142107423Y-102602604D01*
X142106812Y-102604883D01*
X142159668Y-102628253D01*
X142190088Y-102666646D01*
X142190883Y-102668205D01*
X142197715Y-102681614D01*
X142318028Y-102847213D01*
X142462786Y-102991971D01*
X142617749Y-103104556D01*
X142628390Y-103112287D01*
X142744607Y-103171503D01*
X142810776Y-103205218D01*
X142810778Y-103205218D01*
X142810781Y-103205220D01*
X142915137Y-103239127D01*
X143005465Y-103268477D01*
X143106557Y-103284488D01*
X143207648Y-103300500D01*
X143207649Y-103300500D01*
X143412351Y-103300500D01*
X143412352Y-103300500D01*
X143614534Y-103268477D01*
X143809219Y-103205220D01*
X143991610Y-103112287D01*
X144084590Y-103044732D01*
X144157213Y-102991971D01*
X144157215Y-102991968D01*
X144157219Y-102991966D01*
X144301966Y-102847219D01*
X144301968Y-102847215D01*
X144301971Y-102847213D01*
X144354732Y-102774590D01*
X144422287Y-102681610D01*
X144515220Y-102499219D01*
X144578477Y-102304534D01*
X144610500Y-102102352D01*
X144610500Y-101897648D01*
X144578477Y-101695465D01*
X144549127Y-101605137D01*
X144515220Y-101500781D01*
X144515218Y-101500778D01*
X144515218Y-101500776D01*
X144481503Y-101434607D01*
X144422287Y-101318390D01*
X144391126Y-101275500D01*
X144301971Y-101152786D01*
X144157213Y-101008028D01*
X143991613Y-100887715D01*
X143991612Y-100887714D01*
X143991610Y-100887713D01*
X143934653Y-100858691D01*
X143809223Y-100794781D01*
X143614534Y-100731522D01*
X143439995Y-100703878D01*
X143412352Y-100699500D01*
X143207648Y-100699500D01*
X143183329Y-100703351D01*
X143005465Y-100731522D01*
X142810776Y-100794781D01*
X142628386Y-100887715D01*
X142462788Y-101008027D01*
X142337021Y-101133794D01*
X142275698Y-101167278D01*
X142206006Y-101162294D01*
X142161659Y-101133793D01*
X136529895Y-95502029D01*
X136496410Y-95440706D01*
X136501394Y-95371014D01*
X136543266Y-95315081D01*
X136579258Y-95296417D01*
X136769029Y-95234755D01*
X136951349Y-95141859D01*
X136995921Y-95109474D01*
X136316446Y-94430000D01*
X136322661Y-94430000D01*
X136424394Y-94402741D01*
X136515606Y-94350080D01*
X136590080Y-94275606D01*
X136642741Y-94184394D01*
X136670000Y-94082661D01*
X136670000Y-94076448D01*
X137349474Y-94755922D01*
X137349474Y-94755921D01*
X137381859Y-94711349D01*
X137474755Y-94529031D01*
X137537990Y-94334417D01*
X137570000Y-94132317D01*
X137570000Y-93927682D01*
X137537990Y-93725582D01*
X137474755Y-93530968D01*
X137381859Y-93348650D01*
X137349474Y-93304077D01*
X137349474Y-93304076D01*
X136670000Y-93983551D01*
X136670000Y-93977339D01*
X136642741Y-93875606D01*
X136590080Y-93784394D01*
X136515606Y-93709920D01*
X136424394Y-93657259D01*
X136322661Y-93630000D01*
X136316446Y-93630000D01*
X136995922Y-92950524D01*
X136995921Y-92950523D01*
X136951359Y-92918147D01*
X136951350Y-92918141D01*
X136769031Y-92825244D01*
X136574417Y-92762009D01*
X136372317Y-92730000D01*
X136167683Y-92730000D01*
X135965582Y-92762009D01*
X135770968Y-92825244D01*
X135588644Y-92918143D01*
X135544077Y-92950523D01*
X135544077Y-92950524D01*
X136223554Y-93630000D01*
X136217339Y-93630000D01*
X136115606Y-93657259D01*
X136024394Y-93709920D01*
X135949920Y-93784394D01*
X135897259Y-93875606D01*
X135870000Y-93977339D01*
X135870000Y-93983553D01*
X135190524Y-93304077D01*
X135190523Y-93304077D01*
X135158143Y-93348644D01*
X135065244Y-93530968D01*
X135003582Y-93720742D01*
X134964144Y-93778417D01*
X134899785Y-93805615D01*
X134830939Y-93793700D01*
X134797970Y-93770104D01*
X134113330Y-93085464D01*
X119476220Y-78448355D01*
X119476218Y-78448352D01*
X119357347Y-78329481D01*
X119357346Y-78329480D01*
X119270534Y-78279360D01*
X119270534Y-78279359D01*
X119270530Y-78279358D01*
X119220415Y-78250423D01*
X119067687Y-78209499D01*
X118909573Y-78209499D01*
X118901977Y-78209499D01*
X118901961Y-78209500D01*
X114544602Y-78209500D01*
X114477563Y-78189815D01*
X114434117Y-78141795D01*
X114427284Y-78128385D01*
X114306971Y-77962786D01*
X114162213Y-77818028D01*
X113996614Y-77697715D01*
X113990006Y-77694348D01*
X113903917Y-77650483D01*
X113853123Y-77602511D01*
X113836328Y-77534690D01*
X113858865Y-77468555D01*
X113903917Y-77429516D01*
X113996610Y-77382287D01*
X114017770Y-77366913D01*
X114162213Y-77261971D01*
X114162215Y-77261968D01*
X114162219Y-77261966D01*
X114306966Y-77117219D01*
X114306968Y-77117215D01*
X114306971Y-77117213D01*
X114427284Y-76951614D01*
X114427285Y-76951613D01*
X114427287Y-76951610D01*
X114434117Y-76938204D01*
X114482091Y-76887409D01*
X114544602Y-76870500D01*
X133469903Y-76870500D01*
X133536942Y-76890185D01*
X133557583Y-76906818D01*
X136452729Y-79801965D01*
X139070890Y-82420126D01*
X139073016Y-82422304D01*
X139557222Y-82930882D01*
X139561309Y-82935392D01*
X140018977Y-83465956D01*
X140022838Y-83470660D01*
X140453911Y-84023030D01*
X140457537Y-84027919D01*
X140860992Y-84600781D01*
X140864373Y-84605841D01*
X141239230Y-85197805D01*
X141242359Y-85203026D01*
X141587725Y-85812682D01*
X141590594Y-85818049D01*
X141905625Y-86443909D01*
X141908227Y-86449411D01*
X142192168Y-87089972D01*
X142194497Y-87095595D01*
X142446663Y-87749310D01*
X142448714Y-87755041D01*
X142668509Y-88420371D01*
X142670275Y-88426195D01*
X142857150Y-89101473D01*
X142858629Y-89107377D01*
X143012149Y-89791036D01*
X143013336Y-89797005D01*
X143133124Y-90487358D01*
X143134017Y-90493378D01*
X143219786Y-91188774D01*
X143220383Y-91194831D01*
X143271927Y-91893609D01*
X143272226Y-91899688D01*
X143280649Y-92242768D01*
X143284383Y-92394903D01*
X143289463Y-92601806D01*
X143289500Y-92604849D01*
X143289500Y-92800397D01*
X143269815Y-92867436D01*
X143221800Y-92910879D01*
X143208389Y-92917712D01*
X143042786Y-93038028D01*
X142898028Y-93182786D01*
X142777715Y-93348386D01*
X142684781Y-93530776D01*
X142621522Y-93725465D01*
X142589500Y-93927648D01*
X142589500Y-94132351D01*
X142621522Y-94334534D01*
X142684781Y-94529223D01*
X142777715Y-94711613D01*
X142898028Y-94877213D01*
X143042786Y-95021971D01*
X143193247Y-95131285D01*
X143208390Y-95142287D01*
X143324607Y-95201503D01*
X143390776Y-95235218D01*
X143390778Y-95235218D01*
X143390781Y-95235220D01*
X143492326Y-95268214D01*
X143585465Y-95298477D01*
X143686557Y-95314488D01*
X143787648Y-95330500D01*
X143787649Y-95330500D01*
X143992351Y-95330500D01*
X143992352Y-95330500D01*
X144194534Y-95298477D01*
X144389219Y-95235220D01*
X144571610Y-95142287D01*
X144664590Y-95074732D01*
X144737213Y-95021971D01*
X144737215Y-95021968D01*
X144737219Y-95021966D01*
X144881966Y-94877219D01*
X144881968Y-94877215D01*
X144881971Y-94877213D01*
X144934732Y-94804590D01*
X145002287Y-94711610D01*
X145095220Y-94529219D01*
X145158477Y-94334534D01*
X145190500Y-94132352D01*
X145190500Y-93927648D01*
X145169284Y-93793700D01*
X145158477Y-93725465D01*
X145127458Y-93630000D01*
X145095220Y-93530781D01*
X145095218Y-93530778D01*
X145095218Y-93530776D01*
X145002419Y-93348650D01*
X145002287Y-93348390D01*
X144970092Y-93304077D01*
X144881971Y-93182786D01*
X144737213Y-93038028D01*
X144571610Y-92917712D01*
X144558200Y-92910879D01*
X144507406Y-92862903D01*
X144490500Y-92800397D01*
X144490500Y-92516567D01*
X144490497Y-92516517D01*
X144490497Y-92242771D01*
X144490497Y-92242768D01*
X144457205Y-91522668D01*
X144390691Y-90804873D01*
X144291099Y-90090917D01*
X144158640Y-89382321D01*
X143993596Y-88680599D01*
X143796321Y-87987248D01*
X143567235Y-87303748D01*
X143306827Y-86631557D01*
X143015653Y-85972110D01*
X142936267Y-85812682D01*
X142694344Y-85326835D01*
X142694324Y-85326798D01*
X142343555Y-84697046D01*
X141964066Y-84084151D01*
X141556677Y-83489435D01*
X141122256Y-82914168D01*
X140661731Y-82359579D01*
X140661726Y-82359573D01*
X140661720Y-82359566D01*
X140176112Y-81826880D01*
X140176099Y-81826866D01*
X140176084Y-81826850D01*
X139984194Y-81634960D01*
X139984182Y-81634946D01*
X134686916Y-76337680D01*
X134653431Y-76276357D01*
X134658415Y-76206665D01*
X134686916Y-76162318D01*
X136620015Y-74229219D01*
X138646437Y-72202796D01*
X138707758Y-72169313D01*
X138772433Y-72172547D01*
X138898632Y-72213553D01*
X138986110Y-72227408D01*
X139131903Y-72250500D01*
X139131908Y-72250500D01*
X139368097Y-72250500D01*
X139601368Y-72213553D01*
X139634468Y-72202798D01*
X139825992Y-72140568D01*
X140036433Y-72033343D01*
X140227510Y-71894517D01*
X140394517Y-71727510D01*
X140533343Y-71536433D01*
X140593583Y-71418204D01*
X140641558Y-71367409D01*
X140704068Y-71350500D01*
X144295932Y-71350500D01*
X144362971Y-71370185D01*
X144406416Y-71418203D01*
X144466657Y-71536433D01*
X144605483Y-71727510D01*
X144772490Y-71894517D01*
X144963567Y-72033343D01*
X145062991Y-72084002D01*
X145174003Y-72140566D01*
X145174005Y-72140566D01*
X145174008Y-72140568D01*
X145262476Y-72169313D01*
X145398631Y-72213553D01*
X145631903Y-72250500D01*
X145631908Y-72250500D01*
X145868097Y-72250500D01*
X146101368Y-72213553D01*
X146134468Y-72202798D01*
X146325992Y-72140568D01*
X146536433Y-72033343D01*
X146727510Y-71894517D01*
X146894517Y-71727510D01*
X147033343Y-71536433D01*
X147140568Y-71325992D01*
X147213553Y-71101368D01*
X147220309Y-71058714D01*
X147250500Y-70868097D01*
X147250500Y-70631902D01*
X147213553Y-70398631D01*
X147148761Y-70199224D01*
X147140568Y-70174008D01*
X147140566Y-70174005D01*
X147140566Y-70174003D01*
X147044152Y-69984781D01*
X147033343Y-69963567D01*
X146894517Y-69772490D01*
X146727510Y-69605483D01*
X146536433Y-69466657D01*
X146325996Y-69359433D01*
X146101368Y-69286446D01*
X145868097Y-69249500D01*
X145868092Y-69249500D01*
X145631908Y-69249500D01*
X145631903Y-69249500D01*
X145398631Y-69286446D01*
X145174003Y-69359433D01*
X144963566Y-69466657D01*
X144854550Y-69545862D01*
X144772490Y-69605483D01*
X144772488Y-69605485D01*
X144772487Y-69605485D01*
X144605485Y-69772487D01*
X144605485Y-69772488D01*
X144605483Y-69772490D01*
X144549728Y-69849230D01*
X144466657Y-69963566D01*
X144455848Y-69984780D01*
X144408496Y-70077715D01*
X144406417Y-70081795D01*
X144358442Y-70132591D01*
X144295932Y-70149500D01*
X140704068Y-70149500D01*
X140637029Y-70129815D01*
X140593583Y-70081795D01*
X140533343Y-69963567D01*
X140394517Y-69772490D01*
X140227510Y-69605483D01*
X140036433Y-69466657D01*
X139825996Y-69359433D01*
X139601368Y-69286446D01*
X139368097Y-69249500D01*
X139368092Y-69249500D01*
X139131908Y-69249500D01*
X139131903Y-69249500D01*
X138898631Y-69286446D01*
X138674003Y-69359433D01*
X138463566Y-69466657D01*
X138354550Y-69545862D01*
X138272490Y-69605483D01*
X138272488Y-69605485D01*
X138272487Y-69605485D01*
X138105485Y-69772487D01*
X138105485Y-69772488D01*
X138105483Y-69772490D01*
X138049728Y-69849230D01*
X137966657Y-69963566D01*
X137859433Y-70174003D01*
X137786446Y-70398631D01*
X137749500Y-70631902D01*
X137749500Y-70868097D01*
X137786447Y-71101369D01*
X137786447Y-71101372D01*
X137827450Y-71227564D01*
X137829445Y-71297405D01*
X137797200Y-71353563D01*
X133517584Y-75633181D01*
X133456261Y-75666666D01*
X133429903Y-75669500D01*
X114544602Y-75669500D01*
X114477563Y-75649815D01*
X114434117Y-75601795D01*
X114427284Y-75588385D01*
X114306971Y-75422786D01*
X114162213Y-75278028D01*
X113996614Y-75157715D01*
X113990006Y-75154348D01*
X113903917Y-75110483D01*
X113853123Y-75062511D01*
X113836328Y-74994690D01*
X113858865Y-74928555D01*
X113903917Y-74889516D01*
X113996610Y-74842287D01*
X114017770Y-74826913D01*
X114162213Y-74721971D01*
X114162215Y-74721968D01*
X114162219Y-74721966D01*
X114306966Y-74577219D01*
X114306968Y-74577215D01*
X114306971Y-74577213D01*
X114359732Y-74504590D01*
X114427287Y-74411610D01*
X114520220Y-74229219D01*
X114583477Y-74034534D01*
X114615500Y-73832352D01*
X114615500Y-73627648D01*
X114583477Y-73425465D01*
X114567917Y-73377579D01*
X114530628Y-73262816D01*
X114528634Y-73192978D01*
X114564714Y-73133145D01*
X114627415Y-73102316D01*
X114648560Y-73100500D01*
X126874098Y-73100500D01*
X126874142Y-73100497D01*
X127147229Y-73100497D01*
X127147232Y-73100497D01*
X127867332Y-73067205D01*
X128585127Y-73000691D01*
X129299083Y-72901099D01*
X130007679Y-72768640D01*
X130709401Y-72603596D01*
X131402752Y-72406321D01*
X132086252Y-72177235D01*
X132758443Y-71916827D01*
X133417890Y-71625653D01*
X134063186Y-71304333D01*
X134692954Y-70953555D01*
X135305849Y-70574066D01*
X135900565Y-70166677D01*
X136475832Y-69732256D01*
X137030421Y-69271731D01*
X137563150Y-68786084D01*
X137762112Y-68587121D01*
X137762115Y-68587120D01*
X137781703Y-68567530D01*
X137781713Y-68567525D01*
X137818017Y-68531219D01*
X137843795Y-68505439D01*
X138646437Y-67702796D01*
X138707758Y-67669313D01*
X138772433Y-67672547D01*
X138898632Y-67713553D01*
X138986110Y-67727408D01*
X139131903Y-67750500D01*
X139131908Y-67750500D01*
X139368097Y-67750500D01*
X139601368Y-67713553D01*
X139634468Y-67702798D01*
X139825992Y-67640568D01*
X140036433Y-67533343D01*
X140227510Y-67394517D01*
X140394517Y-67227510D01*
X140533343Y-67036433D01*
X140593583Y-66918204D01*
X140641558Y-66867409D01*
X140704068Y-66850500D01*
X144295932Y-66850500D01*
X144362971Y-66870185D01*
X144406416Y-66918203D01*
X144466657Y-67036433D01*
X144605483Y-67227510D01*
X144772490Y-67394517D01*
X144963567Y-67533343D01*
X145062991Y-67584002D01*
X145174003Y-67640566D01*
X145174005Y-67640566D01*
X145174008Y-67640568D01*
X145222131Y-67656204D01*
X145398631Y-67713553D01*
X145631903Y-67750500D01*
X145631908Y-67750500D01*
X145868097Y-67750500D01*
X146101368Y-67713553D01*
X146134468Y-67702798D01*
X146325992Y-67640568D01*
X146536433Y-67533343D01*
X146727510Y-67394517D01*
X146894517Y-67227510D01*
X147033343Y-67036433D01*
X147140568Y-66825992D01*
X147213553Y-66601368D01*
X147250500Y-66368097D01*
X147250500Y-66131902D01*
X147213553Y-65898631D01*
X147140566Y-65674003D01*
X147033342Y-65463566D01*
X146894517Y-65272490D01*
X146727510Y-65105483D01*
X146536433Y-64966657D01*
X146325996Y-64859433D01*
X146101368Y-64786446D01*
X145868097Y-64749500D01*
X145868092Y-64749500D01*
X145631908Y-64749500D01*
X145631903Y-64749500D01*
X145398631Y-64786446D01*
X145174003Y-64859433D01*
X144963566Y-64966657D01*
X144854550Y-65045862D01*
X144772490Y-65105483D01*
X144772488Y-65105485D01*
X144772487Y-65105485D01*
X144605485Y-65272487D01*
X144605485Y-65272488D01*
X144605483Y-65272490D01*
X144545862Y-65354550D01*
X144466657Y-65463566D01*
X144406417Y-65581795D01*
X144358442Y-65632591D01*
X144295932Y-65649500D01*
X140704068Y-65649500D01*
X140637029Y-65629815D01*
X140593583Y-65581795D01*
X140533342Y-65463566D01*
X140394517Y-65272490D01*
X140227510Y-65105483D01*
X140036433Y-64966657D01*
X139825996Y-64859433D01*
X139601368Y-64786446D01*
X139368097Y-64749500D01*
X139368092Y-64749500D01*
X139131908Y-64749500D01*
X139131903Y-64749500D01*
X138898631Y-64786446D01*
X138674003Y-64859433D01*
X138463566Y-64966657D01*
X138354550Y-65045862D01*
X138272490Y-65105483D01*
X138272488Y-65105485D01*
X138272487Y-65105485D01*
X138105485Y-65272487D01*
X138105485Y-65272488D01*
X138105483Y-65272490D01*
X138045862Y-65354550D01*
X137966657Y-65463566D01*
X137859433Y-65674003D01*
X137786446Y-65898631D01*
X137749500Y-66131902D01*
X137749500Y-66368097D01*
X137786447Y-66601369D01*
X137786447Y-66601372D01*
X137827450Y-66727564D01*
X137829445Y-66797405D01*
X137797200Y-66853563D01*
X136994560Y-67656204D01*
X136994558Y-67656206D01*
X136969871Y-67680892D01*
X136967695Y-67683016D01*
X136459117Y-68167222D01*
X136454607Y-68171309D01*
X135924043Y-68628977D01*
X135919339Y-68632838D01*
X135366969Y-69063911D01*
X135362080Y-69067537D01*
X134789218Y-69470992D01*
X134784158Y-69474373D01*
X134192194Y-69849230D01*
X134186973Y-69852359D01*
X133577317Y-70197725D01*
X133571950Y-70200594D01*
X132946090Y-70515625D01*
X132940588Y-70518227D01*
X132300027Y-70802168D01*
X132294404Y-70804497D01*
X131640689Y-71056663D01*
X131634958Y-71058714D01*
X130969628Y-71278509D01*
X130963804Y-71280275D01*
X130288526Y-71467150D01*
X130282622Y-71468629D01*
X129598963Y-71622149D01*
X129592994Y-71623336D01*
X128902641Y-71743124D01*
X128896621Y-71744017D01*
X128201225Y-71829786D01*
X128195168Y-71830383D01*
X127496390Y-71881927D01*
X127490311Y-71882226D01*
X127039017Y-71893305D01*
X126788170Y-71899463D01*
X126785151Y-71899500D01*
X114615426Y-71899500D01*
X114548387Y-71879815D01*
X114502632Y-71827011D01*
X114492688Y-71757853D01*
X114504942Y-71719204D01*
X114520217Y-71689225D01*
X114520218Y-71689223D01*
X114520220Y-71689219D01*
X114583477Y-71494534D01*
X114615500Y-71292352D01*
X114615500Y-71087648D01*
X114594262Y-70953560D01*
X114583477Y-70885465D01*
X114520218Y-70690776D01*
X114468865Y-70589991D01*
X114427287Y-70508390D01*
X114411892Y-70487200D01*
X114306971Y-70342786D01*
X114162213Y-70198028D01*
X113996613Y-70077715D01*
X113996612Y-70077714D01*
X113996610Y-70077713D01*
X113936898Y-70047288D01*
X113814223Y-69984781D01*
X113619534Y-69921522D01*
X113444995Y-69893878D01*
X113417352Y-69889500D01*
X113212648Y-69889500D01*
X113188329Y-69893351D01*
X113010465Y-69921522D01*
X112815776Y-69984781D01*
X112633386Y-70077715D01*
X112467786Y-70198028D01*
X112323028Y-70342786D01*
X112202715Y-70508386D01*
X112109781Y-70690776D01*
X112046522Y-70885465D01*
X112014500Y-71087648D01*
X112014500Y-71292351D01*
X112046522Y-71494534D01*
X112109781Y-71689223D01*
X112125058Y-71719204D01*
X112137954Y-71787873D01*
X112111678Y-71852614D01*
X112054571Y-71892871D01*
X112014573Y-71899499D01*
X111925943Y-71899499D01*
X111849579Y-71919961D01*
X111773214Y-71940423D01*
X111773209Y-71940426D01*
X111636290Y-72019475D01*
X111636282Y-72019481D01*
X107207181Y-76448583D01*
X107145858Y-76482068D01*
X107076166Y-76477084D01*
X107020233Y-76435212D01*
X106995816Y-76369748D01*
X106995500Y-76360902D01*
X106995500Y-76167648D01*
X106963477Y-75965465D01*
X106900218Y-75770776D01*
X106866503Y-75704607D01*
X106807287Y-75588390D01*
X106799556Y-75577749D01*
X106686971Y-75422786D01*
X106542213Y-75278028D01*
X106376614Y-75157715D01*
X106370006Y-75154348D01*
X106283917Y-75110483D01*
X106233123Y-75062511D01*
X106216328Y-74994690D01*
X106238865Y-74928555D01*
X106283917Y-74889516D01*
X106376610Y-74842287D01*
X106397770Y-74826913D01*
X106542213Y-74721971D01*
X106542215Y-74721968D01*
X106542219Y-74721966D01*
X106686966Y-74577219D01*
X106686968Y-74577215D01*
X106686971Y-74577213D01*
X106739732Y-74504590D01*
X106807287Y-74411610D01*
X106900220Y-74229219D01*
X106963477Y-74034534D01*
X106995500Y-73832352D01*
X106995500Y-73627648D01*
X106963477Y-73425465D01*
X106910630Y-73262819D01*
X106900220Y-73230781D01*
X106900218Y-73230778D01*
X106900218Y-73230776D01*
X106850472Y-73133145D01*
X106807287Y-73048390D01*
X106772632Y-73000691D01*
X106686971Y-72882786D01*
X106542219Y-72738034D01*
X106542211Y-72738028D01*
X106448547Y-72669978D01*
X106405882Y-72614649D01*
X106399903Y-72545036D01*
X106432508Y-72483240D01*
X106482426Y-72451955D01*
X106564334Y-72424814D01*
X106713656Y-72332712D01*
X106837712Y-72208656D01*
X106929814Y-72059334D01*
X106984999Y-71892797D01*
X106995500Y-71790009D01*
X106995499Y-70589992D01*
X106984999Y-70487203D01*
X106929814Y-70320666D01*
X106837712Y-70171344D01*
X106713656Y-70047288D01*
X106577922Y-69963567D01*
X106564336Y-69955187D01*
X106564331Y-69955185D01*
X106562862Y-69954698D01*
X106397797Y-69900001D01*
X106397795Y-69900000D01*
X106295010Y-69889500D01*
X105094998Y-69889500D01*
X105094981Y-69889501D01*
X104992203Y-69900000D01*
X104992200Y-69900001D01*
X104825668Y-69955185D01*
X104825663Y-69955187D01*
X104676342Y-70047289D01*
X104552289Y-70171342D01*
X104460187Y-70320663D01*
X104460186Y-70320666D01*
X104405001Y-70487203D01*
X104405001Y-70487204D01*
X104405000Y-70487204D01*
X104394500Y-70589983D01*
X104394500Y-71790001D01*
X104394501Y-71790018D01*
X104405000Y-71892796D01*
X104405001Y-71892799D01*
X104446978Y-72019475D01*
X104460186Y-72059334D01*
X104552288Y-72208656D01*
X104676344Y-72332712D01*
X104825666Y-72424814D01*
X104907570Y-72451954D01*
X104965015Y-72491727D01*
X104991838Y-72556243D01*
X104979523Y-72625018D01*
X104941451Y-72669978D01*
X104847787Y-72738028D01*
X104847782Y-72738032D01*
X104703028Y-72882786D01*
X104582715Y-73048386D01*
X104489781Y-73230776D01*
X104426522Y-73425465D01*
X104394500Y-73627648D01*
X104394500Y-73832351D01*
X104426522Y-74034534D01*
X104489781Y-74229223D01*
X104582715Y-74411613D01*
X104703028Y-74577213D01*
X104847786Y-74721971D01*
X105002749Y-74834556D01*
X105013390Y-74842287D01*
X105104840Y-74888883D01*
X105106080Y-74889515D01*
X105156876Y-74937490D01*
X105173671Y-75005311D01*
X105151134Y-75071446D01*
X105106080Y-75110485D01*
X105013386Y-75157715D01*
X104847786Y-75278028D01*
X104703028Y-75422786D01*
X104582715Y-75588386D01*
X104489781Y-75770776D01*
X104426522Y-75965465D01*
X104394500Y-76167648D01*
X104394500Y-76372351D01*
X104426522Y-76574534D01*
X104489781Y-76769223D01*
X104582715Y-76951613D01*
X104703028Y-77117213D01*
X104847786Y-77261971D01*
X105002749Y-77374556D01*
X105013390Y-77382287D01*
X105104840Y-77428883D01*
X105106080Y-77429515D01*
X105156876Y-77477490D01*
X105173671Y-77545311D01*
X105151134Y-77611446D01*
X105106080Y-77650485D01*
X105013386Y-77697715D01*
X104847786Y-77818028D01*
X104703028Y-77962786D01*
X104582715Y-78128386D01*
X104489781Y-78310776D01*
X104426522Y-78505465D01*
X104394500Y-78707648D01*
X104394500Y-78912351D01*
X104426522Y-79114534D01*
X104489781Y-79309223D01*
X104582715Y-79491613D01*
X104703028Y-79657213D01*
X104703034Y-79657219D01*
X104847781Y-79801966D01*
X105013390Y-79922287D01*
X105026793Y-79929116D01*
X105077589Y-79977088D01*
X105094500Y-80039601D01*
X105094500Y-92608330D01*
X105094499Y-92608348D01*
X105094499Y-92774054D01*
X105094498Y-92774054D01*
X105094499Y-92774057D01*
X105135423Y-92926785D01*
X105135424Y-92926787D01*
X105135423Y-92926787D01*
X105146997Y-92946832D01*
X105146998Y-92946834D01*
X105214475Y-93063709D01*
X105214481Y-93063717D01*
X105333349Y-93182585D01*
X105333355Y-93182590D01*
X106838584Y-94687819D01*
X106872069Y-94749142D01*
X106867085Y-94818834D01*
X106825213Y-94874767D01*
X106759749Y-94899184D01*
X106750903Y-94899500D01*
X105586670Y-94899500D01*
X105586654Y-94899499D01*
X105579058Y-94899499D01*
X105420943Y-94899499D01*
X105344579Y-94919961D01*
X105268214Y-94940423D01*
X105268209Y-94940426D01*
X105131290Y-95019475D01*
X105131282Y-95019481D01*
X104131284Y-96019481D01*
X104019483Y-96131281D01*
X104019481Y-96131284D01*
X103940423Y-96268214D01*
X103940423Y-96268215D01*
X103899499Y-96420943D01*
X103899499Y-96420945D01*
X103899499Y-96579054D01*
X103899498Y-96579054D01*
X94250500Y-96579054D01*
X94250500Y-59624500D01*
X94270185Y-59557461D01*
X94322989Y-59511706D01*
X94374500Y-59500500D01*
X152875500Y-59500500D01*
X152942539Y-59520185D01*
G37*
%TD.AperFunction*%
%TD*%
M02*
